<?xml version="1.0" standalone="no"?>
<!DOCTYPE svg PUBLIC "-//W3C//DTD SVG 20010904//EN"
 "http://www.w3.org/TR/2001/REC-SVG-20010904/DTD/svg10.dtd">
<svg version="1.0" xmlns="http://www.w3.org/2000/svg"
 width="366.000000pt" height="366.000000pt" viewBox="0 0 366.000000 366.000000"
 preserveAspectRatio="xMidYMid meet">
<metadata>
Created by potrace 1.11, written by Peter Selinger 2001-2013
</metadata>
<g transform="translate(0.000000,366.000000) scale(0.100000,-0.100000)"
fill="#000000" stroke="none">
<path d="M1647 2524 c-1 -1 -35 -5 -75 -8 -40 -4 -78 -9 -85 -11 -7 -2 -31 -6
-54 -9 -62 -8 -190 -42 -261 -70 -68 -27 -211 -101 -227 -118 -5 -6 24 8 65
30 198 106 435 133 664 76 139 -34 255 -97 347 -187 l59 -59 315 -1 c173 -1
315 1 315 6 0 4 -25 32 -55 62 -146 147 -386 243 -701 281 -45 6 -302 12 -307
8z"/>
<path d="M905 2280 c-3 -6 1 -7 9 -4 18 7 21 14 7 14 -6 0 -13 -4 -16 -10z"/>
<path d="M14 2081 c-2 -2 -4 -94 -4 -203 l0 -198 63 0 63 0 -1 50 c-2 57 -15
52 134 51 46 0 89 -5 94 -10 5 -5 10 -28 11 -50 l1 -41 62 0 63 0 0 48 c0 67
-9 91 -35 98 -22 5 -22 6 6 34 29 28 34 51 29 125 -2 36 -22 70 -52 86 -20 11
-424 20 -434 10z m353 -112 c16 -14 17 -65 1 -75 -6 -4 -60 -8 -120 -9 -117
-1 -109 -5 -112 60 -1 26 3 31 29 35 50 8 187 1 202 -11z"/>
<path d="M603 2082 c-21 -3 -21 -6 -21 -203 l0 -199 224 0 c172 0 224 3 225
13 0 6 1 28 2 48 l2 36 -140 1 c-202 0 -185 -3 -185 32 l0 30 150 0 150 0 0
45 0 45 -149 0 c-137 0 -149 1 -154 19 -9 37 4 40 155 39 80 0 150 2 155 5 9
6 8 75 -1 85 -6 5 -377 9 -413 4z"/>
<path d="M1140 2082 c-6 -2 -10 -79 -10 -203 l0 -200 63 3 62 3 -1 48 0 47
137 0 c78 0 148 5 162 11 38 17 60 65 61 133 1 80 -17 120 -61 141 -28 14 -70
17 -219 18 -101 1 -189 1 -194 -1z m337 -118 c11 -14 9 -62 -3 -74 -3 -3 -53
-6 -110 -7 -114 -3 -105 -8 -108 62 -1 26 3 31 29 35 63 10 179 1 192 -16z"/>
<path d="M1810 2075 c-4 -5 -45 -77 -90 -160 -45 -82 -93 -169 -107 -192 l-24
-43 74 0 c73 0 73 0 88 33 l14 32 126 3 126 3 19 -36 c18 -35 19 -35 86 -35
38 0 68 3 68 6 0 3 -14 31 -31 62 -17 32 -50 91 -72 132 -23 41 -57 104 -77
139 l-36 63 -78 2 c-43 0 -81 -3 -86 -9z m124 -167 l36 -68 -75 0 -75 0 36 71
c19 39 37 69 38 68 2 -2 20 -34 40 -71z"/>
<path d="M2314 2079 c-53 -15 -69 -42 -69 -120 1 -110 21 -120 237 -124 127
-2 156 -12 137 -46 -9 -17 -22 -19 -125 -19 -107 0 -116 1 -121 20 -5 21 -9
22 -43 22 -11 0 -36 0 -56 -1 l-37 -1 7 -42 c8 -51 25 -71 69 -84 36 -12 315
-11 364 0 45 10 73 49 73 101 0 131 -22 145 -233 146 -132 1 -147 4 -147 29 0
29 15 33 118 35 90 1 122 -8 122 -34 0 -4 27 -7 60 -7 l60 1 0 36 c0 45 -24
76 -68 89 -41 11 -306 11 -348 -1z"/>
<path d="M2805 2080 c-10 -4 17 -43 90 -129 58 -69 106 -128 106 -133 1 -4 2
-36 3 -70 l1 -63 63 -3 c69 -3 65 -8 63 79 -1 50 2 60 33 95 110 126 183 220
175 224 -9 6 -139 4 -143 -2 -78 -106 -146 -172 -146 -140 0 5 -26 39 -57 76
l-58 68 -58 2 c-32 0 -64 -1 -72 -4z"/>
<path d="M3373 1797 c-19 -8 -23 -18 -23 -52 0 -48 12 -62 55 -65 65 -4 84 0
90 21 9 27 -2 37 -18 15 -10 -13 -24 -17 -57 -14 -44 3 -45 4 -45 38 0 32 3
36 37 44 30 8 41 6 56 -7 10 -9 22 -17 25 -17 11 0 8 28 -4 36 -19 11 -92 12
-116 1z"/>
<path d="M3530 1795 c0 -7 18 -11 45 -10 25 0 45 -1 45 -4 -1 -4 -23 -23 -50
-44 -28 -21 -50 -43 -50 -48 0 -5 32 -9 70 -9 40 0 70 4 70 10 0 6 -23 10 -51
10 l-52 0 52 41 c28 22 51 46 51 52 0 8 -22 12 -65 12 -41 1 -65 -3 -65 -10z"/>
<path d="M3273 1713 c-18 -7 -16 -33 2 -33 8 0 15 9 15 20 0 11 -1 20 -2 19
-2 0 -9 -3 -15 -6z"/>
<path d="M1580 1584 c0 0 28 -24 61 -53 l62 -52 -45 -43 c-49 -47 -133 -91
-195 -103 -79 -16 -217 -8 -285 17 -104 38 -203 111 -249 185 -10 17 -19 25
-19 19 0 -21 83 -136 133 -186 140 -138 354 -218 591 -220 84 0 213 9 227 18
3 2 20 6 37 9 18 3 62 16 98 29 l66 24 42 -36 c22 -21 51 -46 64 -56 l22 -19
-2 234 -3 234 -302 0 c-167 0 -303 0 -303 -1z"/>
</g>
</svg>
