<svg xmlns="http://www.w3.org/2000/svg" width="1920" height="1080"><path d="M-192,-180L30,-203L504,-254Z" fill="#2d2d2d" stroke="#2d2d2d" stroke-width="1.51"/><path d="M599,1323L319,1333L733,1322Z" fill="#393939" stroke="#393939" stroke-width="1.51"/><path d="M504,-254L927,-231L1294,-237Z" fill="#404040" stroke="#404040" stroke-width="1.51"/><path d="M1032,1287L733,1322L1454,1313Z" fill="#404040" stroke="#404040" stroke-width="1.51"/><path d="M504,-254L1294,-237L1589,-252Z" fill="#3d3d3d" stroke="#3d3d3d" stroke-width="1.51"/><path d="M1680,1261L1543,1299L1950,1258Z" fill="#323232" stroke="#323232" stroke-width="1.51"/><path d="M1950,1258L1543,1299L2077,1258Z" fill="#2c2c2c" stroke="#2c2c2c" stroke-width="1.51"/><path d="M1543,1299L1454,1313L2077,1258Z" fill="#323232" stroke="#323232" stroke-width="1.51"/><path d="M2125,443L2021,454L2140,627Z" fill="#424242" stroke="#424242" stroke-width="1.51"/><path d="M2021,454L1952,560L2140,627Z" fill="#454545" stroke="#454545" stroke-width="1.51"/><path d="M2070,172L2023,294L2145,365Z" fill="#3b3b3b" stroke="#3b3b3b" stroke-width="1.51"/><path d="M2125,443L2140,627L2145,365Z" fill="#404040" stroke="#404040" stroke-width="1.51"/><path d="M1936,-106L1946,97L2152,-93Z" fill="#303030" stroke="#303030" stroke-width="1.51"/><path d="M1972,985L2106,1154L2152,963Z" fill="#323232" stroke="#323232" stroke-width="1.51"/><path d="M1984,886L2152,963L2153,904Z" fill="#373737" stroke="#373737" stroke-width="1.51"/><path d="M2097,744L1984,886L2153,904Z" fill="#3a3a3a" stroke="#3a3a3a" stroke-width="1.51"/><path d="M2140,627L2097,744L2153,904Z" fill="#3a3a3a" stroke="#3a3a3a" stroke-width="1.51"/><path d="M2145,365L2140,627L2153,904Z" fill="#3e3e3e" stroke="#3e3e3e" stroke-width="1.51"/><path d="M1589,-252L1870,-240L2154,-234Z" fill="#292929" stroke="#292929" stroke-width="1.51"/><path d="M1870,-240L1996,-179L2154,-234Z" fill="#262626" stroke="#262626" stroke-width="1.51"/><path d="M1996,-179L2152,-93L2154,-234Z" fill="#252525" stroke="#252525" stroke-width="1.51"/><path d="M2152,-93L1946,97L2157,93Z" fill="#313131" stroke="#313131" stroke-width="1.51"/><path d="M1946,97L2070,172L2157,93Z" fill="#373737" stroke="#373737" stroke-width="1.51"/><path d="M2070,172L2145,365L2157,93Z" fill="#383838" stroke="#383838" stroke-width="1.51"/><path d="M2145,365L2153,904L2157,93Z" fill="#3e3e3e" stroke="#3e3e3e" stroke-width="1.51"/><path d="M2154,-234L2152,-93L2157,93Z" fill="#282828" stroke="#282828" stroke-width="1.51"/><path d="M1972,985L1973,1144L2106,1154Z" fill="#303030" stroke="#303030" stroke-width="1.51"/><path d="M1984,886L1972,985L2152,963Z" fill="#393939" stroke="#393939" stroke-width="1.51"/><path d="M1996,-179L1936,-106L2152,-93Z" fill="#2a2a2a" stroke="#2a2a2a" stroke-width="1.51"/><path d="M2021,454L2125,443L2145,365Z" fill="#3f3f3f" stroke="#3f3f3f" stroke-width="1.51"/><path d="M2023,294L2021,454L2145,365Z" fill="#3f3f3f" stroke="#3f3f3f" stroke-width="1.51"/><path d="M1946,732L2097,744L2140,627Z" fill="#3f3f3f" stroke="#3f3f3f" stroke-width="1.51"/><path d="M1952,560L1946,732L2140,627Z" fill="#434343" stroke="#434343" stroke-width="1.51"/><path d="M1876,1235L1680,1261L1950,1258Z" fill="#2f2f2f" stroke="#2f2f2f" stroke-width="1.51"/><path d="M1946,732L1984,886L2097,744Z" fill="#3e3e3e" stroke="#3e3e3e" stroke-width="1.51"/><path d="M1973,1144L2077,1258L2106,1154Z" fill="#2a2a2a" stroke="#2a2a2a" stroke-width="1.51"/><path d="M1921,253L2023,294L2070,172Z" fill="#3d3d3d" stroke="#3d3d3d" stroke-width="1.51"/><path d="M1973,1144L1950,1258L2077,1258Z" fill="#2a2a2a" stroke="#2a2a2a" stroke-width="1.51"/><path d="M1946,97L1921,253L2070,172Z" fill="#3c3c3c" stroke="#3c3c3c" stroke-width="1.51"/><path d="M1936,-106L1827,29L1946,97Z" fill="#363636" stroke="#363636" stroke-width="1.51"/><path d="M1887,307L1788,466L2021,454Z" fill="#464646" stroke="#464646" stroke-width="1.51"/><path d="M1887,307L2021,454L2023,294Z" fill="#414141" stroke="#414141" stroke-width="1.51"/><path d="M1921,253L1887,307L2023,294Z" fill="#414141" stroke="#414141" stroke-width="1.51"/><path d="M1788,466L1952,560L2021,454Z" fill="#484848" stroke="#484848" stroke-width="1.51"/><path d="M1872,710L1796,921L1946,732Z" fill="#444444" stroke="#444444" stroke-width="1.51"/><path d="M1872,710L1946,732L1952,560Z" fill="#454545" stroke="#454545" stroke-width="1.51"/><path d="M1860,986L1834,1099L1972,985Z" fill="#3a3a3a" stroke="#3a3a3a" stroke-width="1.51"/><path d="M1876,1235L1950,1258L1973,1144Z" fill="#2d2d2d" stroke="#2d2d2d" stroke-width="1.51"/><path d="M1972,985L1834,1099L1973,1144Z" fill="#353535" stroke="#353535" stroke-width="1.51"/><path d="M1946,732L1796,921L1984,886Z" fill="#404040" stroke="#404040" stroke-width="1.51"/><path d="M1870,-240L1936,-106L1996,-179Z" fill="#2a2a2a" stroke="#2a2a2a" stroke-width="1.51"/><path d="M1828,-75L1827,29L1936,-106Z" fill="#343434" stroke="#343434" stroke-width="1.51"/><path d="M1827,654L1872,710L1952,560Z" fill="#484848" stroke="#484848" stroke-width="1.51"/><path d="M1860,986L1972,985L1984,886Z" fill="#3c3c3c" stroke="#3c3c3c" stroke-width="1.51"/><path d="M1796,921L1860,986L1984,886Z" fill="#3f3f3f" stroke="#3f3f3f" stroke-width="1.51"/><path d="M1806,203L1921,253L1946,97Z" fill="#404040" stroke="#404040" stroke-width="1.51"/><path d="M1834,1099L1876,1235L1973,1144Z" fill="#313131" stroke="#313131" stroke-width="1.51"/><path d="M1788,466L1827,654L1952,560Z" fill="#4c4c4c" stroke="#4c4c4c" stroke-width="1.51"/><path d="M1870,-240L1828,-75L1936,-106Z" fill="#2f2f2f" stroke="#2f2f2f" stroke-width="1.51"/><path d="M1827,29L1806,203L1946,97Z" fill="#3e3e3e" stroke="#3e3e3e" stroke-width="1.51"/><path d="M1806,203L1887,307L1921,253Z" fill="#434343" stroke="#434343" stroke-width="1.51"/><path d="M1788,466L1726,603L1827,654Z" fill="#4f4f4f" stroke="#4f4f4f" stroke-width="1.51"/><path d="M1589,-252L1725,-173L1870,-240Z" fill="#303030" stroke="#303030" stroke-width="1.51"/><path d="M1725,-173L1828,-75L1870,-240Z" fill="#303030" stroke="#303030" stroke-width="1.51"/><path d="M1661,740L1796,921L1872,710Z" fill="#474747" stroke="#474747" stroke-width="1.51"/><path d="M1834,1099L1704,1179L1876,1235Z" fill="#343434" stroke="#343434" stroke-width="1.51"/><path d="M1806,203L1704,293L1887,307Z" fill="#464646" stroke="#464646" stroke-width="1.51"/><path d="M1704,293L1788,466L1887,307Z" fill="#494949" stroke="#494949" stroke-width="1.51"/><path d="M1827,654L1661,740L1872,710Z" fill="#4a4a4a" stroke="#4a4a4a" stroke-width="1.51"/><path d="M1704,1179L1680,1261L1876,1235Z" fill="#333333" stroke="#333333" stroke-width="1.51"/><path d="M1681,171L1806,203L1827,29Z" fill="#434343" stroke="#434343" stroke-width="1.51"/><path d="M1692,997L1834,1099L1860,986Z" fill="#3d3d3d" stroke="#3d3d3d" stroke-width="1.51"/><path d="M1796,921L1692,997L1860,986Z" fill="#414141" stroke="#414141" stroke-width="1.51"/><path d="M1661,740L1659,916L1796,921Z" fill="#484848" stroke="#484848" stroke-width="1.51"/><path d="M1659,55L1681,171L1827,29Z" fill="#424242" stroke="#424242" stroke-width="1.51"/><path d="M1726,603L1661,740L1827,654Z" fill="#4d4d4d" stroke="#4d4d4d" stroke-width="1.51"/><path d="M1747,-47L1827,29L1828,-75Z" fill="#383838" stroke="#383838" stroke-width="1.51"/><path d="M1725,-173L1747,-47L1828,-75Z" fill="#353535" stroke="#353535" stroke-width="1.51"/><path d="M1692,997L1704,1179L1834,1099Z" fill="#3b3b3b" stroke="#3b3b3b" stroke-width="1.51"/><path d="M1680,522L1726,603L1788,466Z" fill="#515151" stroke="#515151" stroke-width="1.51"/><path d="M1747,-47L1659,55L1827,29Z" fill="#3c3c3c" stroke="#3c3c3c" stroke-width="1.51"/><path d="M1681,171L1704,293L1806,203Z" fill="#474747" stroke="#474747" stroke-width="1.51"/><path d="M1704,293L1680,522L1788,466Z" fill="#4e4e4e" stroke="#4e4e4e" stroke-width="1.51"/><path d="M1659,916L1692,997L1796,921Z" fill="#454545" stroke="#454545" stroke-width="1.51"/><path d="M1616,513L1680,522L1704,293Z" fill="#515151" stroke="#515151" stroke-width="1.51"/><path d="M1519,355L1616,513L1704,293Z" fill="#515151" stroke="#515151" stroke-width="1.51"/><path d="M1692,997L1553,1125L1704,1179Z" fill="#3e3e3e" stroke="#3e3e3e" stroke-width="1.51"/><path d="M1725,-173L1537,-50L1747,-47Z" fill="#3a3a3a" stroke="#3a3a3a" stroke-width="1.51"/><path d="M1537,-50L1659,55L1747,-47Z" fill="#3f3f3f" stroke="#3f3f3f" stroke-width="1.51"/><path d="M1589,904L1659,916L1661,740Z" fill="#4b4b4b" stroke="#4b4b4b" stroke-width="1.51"/><path d="M1589,-252L1537,-50L1725,-173Z" fill="#383838" stroke="#383838" stroke-width="1.51"/><path d="M1532,560L1661,740L1726,603Z" fill="#525252" stroke="#525252" stroke-width="1.51"/><path d="M1616,513L1532,560L1726,603Z" fill="#555555" stroke="#555555" stroke-width="1.51"/><path d="M1680,522L1616,513L1726,603Z" fill="#545454" stroke="#545454" stroke-width="1.51"/><path d="M1189,1254L1032,1287L1454,1313Z" fill="#3e3e3e" stroke="#3e3e3e" stroke-width="1.51"/><path d="M1537,-50L1550,21L1659,55Z" fill="#434343" stroke="#434343" stroke-width="1.51"/><path d="M1525,1009L1553,1125L1692,997Z" fill="#444444" stroke="#444444" stroke-width="1.51"/><path d="M1681,171L1568,171L1704,293Z" fill="#4a4a4a" stroke="#4a4a4a" stroke-width="1.51"/><path d="M1568,171L1519,355L1704,293Z" fill="#4e4e4e" stroke="#4e4e4e" stroke-width="1.51"/><path d="M1553,1125L1680,1261L1704,1179Z" fill="#3a3a3a" stroke="#3a3a3a" stroke-width="1.51"/><path d="M1532,560L1520,751L1661,740Z" fill="#535353" stroke="#535353" stroke-width="1.51"/><path d="M1659,55L1568,171L1681,171Z" fill="#484848" stroke="#484848" stroke-width="1.51"/><path d="M1659,916L1589,904L1692,997Z" fill="#484848" stroke="#484848" stroke-width="1.51"/><path d="M1589,904L1525,1009L1692,997Z" fill="#484848" stroke="#484848" stroke-width="1.51"/><path d="M1520,751L1589,904L1661,740Z" fill="#4f4f4f" stroke="#4f4f4f" stroke-width="1.51"/><path d="M1553,1125L1543,1299L1680,1261Z" fill="#393939" stroke="#393939" stroke-width="1.51"/><path d="M1294,-237L1398,-193L1589,-252Z" fill="#393939" stroke="#393939" stroke-width="1.51"/><path d="M1550,21L1568,171L1659,55Z" fill="#474747" stroke="#474747" stroke-width="1.51"/><path d="M927,-231L999,-211L1294,-237Z" fill="#404040" stroke="#404040" stroke-width="1.51"/><path d="M1462,705L1520,751L1532,560Z" fill="#555555" stroke="#555555" stroke-width="1.51"/><path d="M1444,298L1519,355L1568,171Z" fill="#505050" stroke="#505050" stroke-width="1.51"/><path d="M1550,21L1462,91L1568,171Z" fill="#494949" stroke="#494949" stroke-width="1.51"/><path d="M1398,-193L1537,-50L1589,-252Z" fill="#3a3a3a" stroke="#3a3a3a" stroke-width="1.51"/><path d="M1520,751L1442,859L1589,904Z" fill="#4f4f4f" stroke="#4f4f4f" stroke-width="1.51"/><path d="M1519,355L1532,560L1616,513Z" fill="#575757" stroke="#575757" stroke-width="1.51"/><path d="M1519,355L1395,468L1532,560Z" fill="#585858" stroke="#585858" stroke-width="1.51"/><path d="M1412,1188L1543,1299L1553,1125Z" fill="#3d3d3d" stroke="#3d3d3d" stroke-width="1.51"/><path d="M1479,159L1444,298L1568,171Z" fill="#4f4f4f" stroke="#4f4f4f" stroke-width="1.51"/><path d="M1462,91L1479,159L1568,171Z" fill="#4c4c4c" stroke="#4c4c4c" stroke-width="1.51"/><path d="M1442,859L1525,1009L1589,904Z" fill="#4c4c4c" stroke="#4c4c4c" stroke-width="1.51"/><path d="M1395,468L1466,567L1532,560Z" fill="#5a5a5a" stroke="#5a5a5a" stroke-width="1.51"/><path d="M1466,567L1462,705L1532,560Z" fill="#585858" stroke="#585858" stroke-width="1.51"/><path d="M1412,1188L1454,1313L1543,1299Z" fill="#3a3a3a" stroke="#3a3a3a" stroke-width="1.51"/><path d="M1525,1009L1442,1035L1553,1125Z" fill="#464646" stroke="#464646" stroke-width="1.51"/><path d="M1398,-193L1403,-33L1537,-50Z" fill="#404040" stroke="#404040" stroke-width="1.51"/><path d="M1537,-50L1403,-33L1550,21Z" fill="#434343" stroke="#434343" stroke-width="1.51"/><path d="M1442,1035L1412,1188L1553,1125Z" fill="#434343" stroke="#434343" stroke-width="1.51"/><path d="M1291,1244L1189,1254L1454,1313Z" fill="#3d3d3d" stroke="#3d3d3d" stroke-width="1.51"/><path d="M1403,-33L1462,91L1550,21Z" fill="#464646" stroke="#464646" stroke-width="1.51"/><path d="M1442,859L1442,1035L1525,1009Z" fill="#4b4b4b" stroke="#4b4b4b" stroke-width="1.51"/><path d="M1444,298L1395,468L1519,355Z" fill="#555555" stroke="#555555" stroke-width="1.51"/><path d="M1462,705L1442,859L1520,751Z" fill="#525252" stroke="#525252" stroke-width="1.51"/><path d="M1442,859L1328,979L1442,1035Z" fill="#4d4d4d" stroke="#4d4d4d" stroke-width="1.51"/><path d="M1314,336L1395,468L1444,298Z" fill="#565656" stroke="#565656" stroke-width="1.51"/><path d="M1331,722L1442,859L1462,705Z" fill="#545454" stroke="#545454" stroke-width="1.51"/><path d="M1331,722L1462,705L1466,567Z" fill="#575757" stroke="#575757" stroke-width="1.51"/><path d="M1286,583L1331,722L1466,567Z" fill="#5a5a5a" stroke="#5a5a5a" stroke-width="1.51"/><path d="M1247,224L1444,298L1479,159Z" fill="#525252" stroke="#525252" stroke-width="1.51"/><path d="M1462,91L1310,59L1479,159Z" fill="#4c4c4c" stroke="#4c4c4c" stroke-width="1.51"/><path d="M1310,59L1247,224L1479,159Z" fill="#505050" stroke="#505050" stroke-width="1.51"/><path d="M1287,1150L1412,1188L1442,1035Z" fill="#444444" stroke="#444444" stroke-width="1.51"/><path d="M1403,-33L1310,59L1462,91Z" fill="#494949" stroke="#494949" stroke-width="1.51"/><path d="M1395,468L1286,583L1466,567Z" fill="#5c5c5c" stroke="#5c5c5c" stroke-width="1.51"/><path d="M1398,-193L1302,-95L1403,-33Z" fill="#414141" stroke="#414141" stroke-width="1.51"/><path d="M1247,224L1314,336L1444,298Z" fill="#555555" stroke="#555555" stroke-width="1.51"/><path d="M1412,1188L1291,1244L1454,1313Z" fill="#3d3d3d" stroke="#3d3d3d" stroke-width="1.51"/><path d="M1287,522L1286,583L1395,468Z" fill="#5d5d5d" stroke="#5d5d5d" stroke-width="1.51"/><path d="M1331,722L1284,852L1442,859Z" fill="#545454" stroke="#545454" stroke-width="1.51"/><path d="M1284,852L1328,979L1442,859Z" fill="#515151" stroke="#515151" stroke-width="1.51"/><path d="M1328,979L1287,1150L1442,1035Z" fill="#494949" stroke="#494949" stroke-width="1.51"/><path d="M1287,1150L1291,1244L1412,1188Z" fill="#414141" stroke="#414141" stroke-width="1.51"/><path d="M1302,-95L1310,59L1403,-33Z" fill="#464646" stroke="#464646" stroke-width="1.51"/><path d="M1314,336L1287,522L1395,468Z" fill="#5a5a5a" stroke="#5a5a5a" stroke-width="1.51"/><path d="M1294,-237L1302,-95L1398,-193Z" fill="#3d3d3d" stroke="#3d3d3d" stroke-width="1.51"/><path d="M1159,643L1211,755L1286,583Z" fill="#5c5c5c" stroke="#5c5c5c" stroke-width="1.51"/><path d="M1193,298L1128,521L1287,522Z" fill="#5d5d5d" stroke="#5d5d5d" stroke-width="1.51"/><path d="M999,-211L1111,-171L1294,-237Z" fill="#404040" stroke="#404040" stroke-width="1.51"/><path d="M1302,-95L1130,24L1310,59Z" fill="#494949" stroke="#494949" stroke-width="1.51"/><path d="M1193,298L1287,522L1314,336Z" fill="#5a5a5a" stroke="#5a5a5a" stroke-width="1.51"/><path d="M1284,852L1212,910L1328,979Z" fill="#525252" stroke="#525252" stroke-width="1.51"/><path d="M1178,982L1287,1150L1328,979Z" fill="#4c4c4c" stroke="#4c4c4c" stroke-width="1.51"/><path d="M1286,583L1211,755L1331,722Z" fill="#5a5a5a" stroke="#5a5a5a" stroke-width="1.51"/><path d="M1211,755L1284,852L1331,722Z" fill="#575757" stroke="#575757" stroke-width="1.51"/><path d="M1247,224L1193,298L1314,336Z" fill="#575757" stroke="#575757" stroke-width="1.51"/><path d="M1212,910L1178,982L1328,979Z" fill="#515151" stroke="#515151" stroke-width="1.51"/><path d="M1287,1150L1207,1186L1291,1244Z" fill="#424242" stroke="#424242" stroke-width="1.51"/><path d="M1111,-19L1130,24L1302,-95Z" fill="#494949" stroke="#494949" stroke-width="1.51"/><path d="M1294,-237L1111,-171L1302,-95Z" fill="#404040" stroke="#404040" stroke-width="1.51"/><path d="M1130,24L1247,224L1310,59Z" fill="#505050" stroke="#505050" stroke-width="1.51"/><path d="M1178,982L1207,1186L1287,1150Z" fill="#494949" stroke="#494949" stroke-width="1.51"/><path d="M1111,-171L1111,-19L1302,-95Z" fill="#454545" stroke="#454545" stroke-width="1.51"/><path d="M1130,24L1114,226L1247,224Z" fill="#545454" stroke="#545454" stroke-width="1.51"/><path d="M1128,521L1286,583L1287,522Z" fill="#606060" stroke="#606060" stroke-width="1.51"/><path d="M1207,1186L1189,1254L1291,1244Z" fill="#414141" stroke="#414141" stroke-width="1.51"/><path d="M1128,521L1159,643L1286,583Z" fill="#5f5f5f" stroke="#5f5f5f" stroke-width="1.51"/><path d="M1211,755L1212,910L1284,852Z" fill="#565656" stroke="#565656" stroke-width="1.51"/><path d="M1056,374L1128,521L1193,298Z" fill="#5d5d5d" stroke="#5d5d5d" stroke-width="1.51"/><path d="M1178,982L1019,1149L1207,1186Z" fill="#4b4b4b" stroke="#4b4b4b" stroke-width="1.51"/><path d="M1114,226L1193,298L1247,224Z" fill="#575757" stroke="#575757" stroke-width="1.51"/><path d="M1111,-171L1077,-42L1111,-19Z" fill="#484848" stroke="#484848" stroke-width="1.51"/><path d="M1040,190L1114,226L1130,24Z" fill="#565656" stroke="#565656" stroke-width="1.51"/><path d="M1159,643L1040,780L1211,755Z" fill="#5b5b5b" stroke="#5b5b5b" stroke-width="1.51"/><path d="M1013,876L1178,982L1212,910Z" fill="#555555" stroke="#555555" stroke-width="1.51"/><path d="M1211,755L1040,780L1212,910Z" fill="#585858" stroke="#585858" stroke-width="1.51"/><path d="M1040,780L1013,876L1212,910Z" fill="#585858" stroke="#585858" stroke-width="1.51"/><path d="M1019,1149L1189,1254L1207,1186Z" fill="#454545" stroke="#454545" stroke-width="1.51"/><path d="M990,1000L1019,1149L1178,982Z" fill="#505050" stroke="#505050" stroke-width="1.51"/><path d="M1019,1149L1032,1287L1189,1254Z" fill="#454545" stroke="#454545" stroke-width="1.51"/><path d="M1114,226L1056,374L1193,298Z" fill="#5a5a5a" stroke="#5a5a5a" stroke-width="1.51"/><path d="M1038,29L1040,190L1130,24Z" fill="#535353" stroke="#535353" stroke-width="1.51"/><path d="M1128,521L1055,570L1159,643Z" fill="#616161" stroke="#616161" stroke-width="1.51"/><path d="M1013,876L990,1000L1178,982Z" fill="#555555" stroke="#555555" stroke-width="1.51"/><path d="M1055,570L1040,780L1159,643Z" fill="#5f5f5f" stroke="#5f5f5f" stroke-width="1.51"/><path d="M1040,190L1056,374L1114,226Z" fill="#5a5a5a" stroke="#5a5a5a" stroke-width="1.51"/><path d="M1056,374L995,428L1128,521Z" fill="#606060" stroke="#606060" stroke-width="1.51"/><path d="M995,428L1055,570L1128,521Z" fill="#626262" stroke="#626262" stroke-width="1.51"/><path d="M1111,-19L1038,29L1130,24Z" fill="#4e4e4e" stroke="#4e4e4e" stroke-width="1.51"/><path d="M938,584L1040,780L1055,570Z" fill="#616161" stroke="#616161" stroke-width="1.51"/><path d="M999,-211L1077,-42L1111,-171Z" fill="#454545" stroke="#454545" stroke-width="1.51"/><path d="M1077,-42L1038,29L1111,-19Z" fill="#4d4d4d" stroke="#4d4d4d" stroke-width="1.51"/><path d="M851,1243L733,1322L1032,1287Z" fill="#424242" stroke="#424242" stroke-width="1.51"/><path d="M938,584L895,737L1040,780Z" fill="#606060" stroke="#606060" stroke-width="1.51"/><path d="M995,428L913,521L1055,570Z" fill="#646464" stroke="#646464" stroke-width="1.51"/><path d="M1040,190L919,227L1056,374Z" fill="#5b5b5b" stroke="#5b5b5b" stroke-width="1.51"/><path d="M919,227L894,333L1056,374Z" fill="#5e5e5e" stroke="#5e5e5e" stroke-width="1.51"/><path d="M887,-110L1038,29L1077,-42Z" fill="#4c4c4c" stroke="#4c4c4c" stroke-width="1.51"/><path d="M999,-211L887,-110L1077,-42Z" fill="#484848" stroke="#484848" stroke-width="1.51"/><path d="M1019,1149L924,1149L1032,1287Z" fill="#494949" stroke="#494949" stroke-width="1.51"/><path d="M1038,29L844,100L1040,190Z" fill="#565656" stroke="#565656" stroke-width="1.51"/><path d="M844,100L919,227L1040,190Z" fill="#595959" stroke="#595959" stroke-width="1.51"/><path d="M913,521L938,584L1055,570Z" fill="#656565" stroke="#656565" stroke-width="1.51"/><path d="M894,333L995,428L1056,374Z" fill="#606060" stroke="#606060" stroke-width="1.51"/><path d="M504,-254L705,-164L927,-231Z" fill="#3e3e3e" stroke="#3e3e3e" stroke-width="1.51"/><path d="M990,1000L924,1149L1019,1149Z" fill="#4e4e4e" stroke="#4e4e4e" stroke-width="1.51"/><path d="M924,1149L851,1243L1032,1287Z" fill="#464646" stroke="#464646" stroke-width="1.51"/><path d="M887,-110L844,100L1038,29Z" fill="#505050" stroke="#505050" stroke-width="1.51"/><path d="M895,737L1013,876L1040,780Z" fill="#5d5d5d" stroke="#5d5d5d" stroke-width="1.51"/><path d="M895,737L857,833L1013,876Z" fill="#5b5b5b" stroke="#5b5b5b" stroke-width="1.51"/><path d="M927,-231L887,-110L999,-211Z" fill="#444444" stroke="#444444" stroke-width="1.51"/><path d="M849,960L990,1000L1013,876Z" fill="#585858" stroke="#585858" stroke-width="1.51"/><path d="M857,833L849,960L1013,876Z" fill="#595959" stroke="#595959" stroke-width="1.51"/><path d="M30,-203L330,-202L504,-254Z" fill="#343434" stroke="#343434" stroke-width="1.51"/><path d="M849,960L924,1149L990,1000Z" fill="#525252" stroke="#525252" stroke-width="1.51"/><path d="M894,333L913,521L995,428Z" fill="#616161" stroke="#616161" stroke-width="1.51"/><path d="M778,85L844,100L887,-110Z" fill="#4f4f4f" stroke="#4f4f4f" stroke-width="1.51"/><path d="M894,333L736,387L913,521Z" fill="#5f5f5f" stroke="#5f5f5f" stroke-width="1.51"/><path d="M736,387L743,519L913,521Z" fill="#606060" stroke="#606060" stroke-width="1.51"/><path d="M849,960L797,988L924,1149Z" fill="#515151" stroke="#515151" stroke-width="1.51"/><path d="M797,988L756,1106L924,1149Z" fill="#4d4d4d" stroke="#4d4d4d" stroke-width="1.51"/><path d="M714,569L762,705L938,584Z" fill="#606060" stroke="#606060" stroke-width="1.51"/><path d="M913,521L743,519L938,584Z" fill="#646464" stroke="#646464" stroke-width="1.51"/><path d="M743,519L714,569L938,584Z" fill="#626262" stroke="#626262" stroke-width="1.51"/><path d="M762,705L895,737L938,584Z" fill="#5f5f5f" stroke="#5f5f5f" stroke-width="1.51"/><path d="M775,-121L778,85L887,-110Z" fill="#494949" stroke="#494949" stroke-width="1.51"/><path d="M775,-121L887,-110L927,-231Z" fill="#454545" stroke="#454545" stroke-width="1.51"/><path d="M705,-164L775,-121L927,-231Z" fill="#434343" stroke="#434343" stroke-width="1.51"/><path d="M756,1106L851,1243L924,1149Z" fill="#484848" stroke="#484848" stroke-width="1.51"/><path d="M515,1307L319,1333L599,1323Z" fill="#373737" stroke="#373737" stroke-width="1.51"/><path d="M710,177L894,333L919,227Z" fill="#595959" stroke="#595959" stroke-width="1.51"/><path d="M844,100L710,177L919,227Z" fill="#565656" stroke="#565656" stroke-width="1.51"/><path d="M710,177L736,387L894,333Z" fill="#5a5a5a" stroke="#5a5a5a" stroke-width="1.51"/><path d="M762,705L857,833L895,737Z" fill="#5b5b5b" stroke="#5b5b5b" stroke-width="1.51"/><path d="M778,85L710,177L844,100Z" fill="#535353" stroke="#535353" stroke-width="1.51"/><path d="M727,887L797,988L849,960Z" fill="#545454" stroke="#545454" stroke-width="1.51"/><path d="M727,887L849,960L857,833Z" fill="#565656" stroke="#565656" stroke-width="1.51"/><path d="M762,705L727,887L857,833Z" fill="#595959" stroke="#595959" stroke-width="1.51"/><path d="M710,177L641,305L736,387Z" fill="#575757" stroke="#575757" stroke-width="1.51"/><path d="M775,-121L644,-30L778,85Z" fill="#4a4a4a" stroke="#4a4a4a" stroke-width="1.51"/><path d="M756,1106L733,1322L851,1243Z" fill="#444444" stroke="#444444" stroke-width="1.51"/><path d="M592,1098L599,1323L733,1322Z" fill="#3f3f3f" stroke="#3f3f3f" stroke-width="1.51"/><path d="M592,1098L733,1322L756,1106Z" fill="#444444" stroke="#444444" stroke-width="1.51"/><path d="M644,-30L632,73L778,85Z" fill="#4d4d4d" stroke="#4d4d4d" stroke-width="1.51"/><path d="M664,1042L756,1106L797,988Z" fill="#4d4d4d" stroke="#4d4d4d" stroke-width="1.51"/><path d="M727,887L664,1042L797,988Z" fill="#525252" stroke="#525252" stroke-width="1.51"/><path d="M504,-254L588,-163L705,-164Z" fill="#3d3d3d" stroke="#3d3d3d" stroke-width="1.51"/><path d="M571,767L727,887L762,705Z" fill="#575757" stroke="#575757" stroke-width="1.51"/><path d="M705,-164L644,-30L775,-121Z" fill="#444444" stroke="#444444" stroke-width="1.51"/><path d="M632,73L710,177L778,85Z" fill="#515151" stroke="#515151" stroke-width="1.51"/><path d="M736,387L600,471L743,519Z" fill="#5d5d5d" stroke="#5d5d5d" stroke-width="1.51"/><path d="M714,569L663,560L762,705Z" fill="#5e5e5e" stroke="#5e5e5e" stroke-width="1.51"/><path d="M663,560L571,767L762,705Z" fill="#5b5b5b" stroke="#5b5b5b" stroke-width="1.51"/><path d="M571,767L592,892L727,887Z" fill="#545454" stroke="#545454" stroke-width="1.51"/><path d="M664,1042L592,1098L756,1106Z" fill="#4a4a4a" stroke="#4a4a4a" stroke-width="1.51"/><path d="M592,892L664,1042L727,887Z" fill="#525252" stroke="#525252" stroke-width="1.51"/><path d="M663,560L714,569L743,519Z" fill="#606060" stroke="#606060" stroke-width="1.51"/><path d="M600,471L663,560L743,519Z" fill="#5e5e5e" stroke="#5e5e5e" stroke-width="1.51"/><path d="M609,194L641,305L710,177Z" fill="#545454" stroke="#545454" stroke-width="1.51"/><path d="M641,305L600,471L736,387Z" fill="#5a5a5a" stroke="#5a5a5a" stroke-width="1.51"/><path d="M588,-163L644,-30L705,-164Z" fill="#424242" stroke="#424242" stroke-width="1.51"/><path d="M632,73L609,194L710,177Z" fill="#525252" stroke="#525252" stroke-width="1.51"/><path d="M592,1098L493,1159L599,1323Z" fill="#414141" stroke="#414141" stroke-width="1.51"/><path d="M493,1159L515,1307L599,1323Z" fill="#3c3c3c" stroke="#3c3c3c" stroke-width="1.51"/><path d="M588,-163L533,-75L644,-30Z" fill="#434343" stroke="#434343" stroke-width="1.51"/><path d="M518,753L571,767L663,560Z" fill="#585858" stroke="#585858" stroke-width="1.51"/><path d="M464,558L518,753L663,560Z" fill="#5a5a5a" stroke="#5a5a5a" stroke-width="1.51"/><path d="M506,982L592,1098L664,1042Z" fill="#4a4a4a" stroke="#4a4a4a" stroke-width="1.51"/><path d="M592,892L506,982L664,1042Z" fill="#4e4e4e" stroke="#4e4e4e" stroke-width="1.51"/><path d="M600,471L464,558L663,560Z" fill="#5d5d5d" stroke="#5d5d5d" stroke-width="1.51"/><path d="M456,291L491,480L600,471Z" fill="#575757" stroke="#575757" stroke-width="1.51"/><path d="M609,194L456,291L641,305Z" fill="#535353" stroke="#535353" stroke-width="1.51"/><path d="M456,291L600,471L641,305Z" fill="#575757" stroke="#575757" stroke-width="1.51"/><path d="M533,-75L632,73L644,-30Z" fill="#484848" stroke="#484848" stroke-width="1.51"/><path d="M445,88L609,194L632,73Z" fill="#4e4e4e" stroke="#4e4e4e" stroke-width="1.51"/><path d="M491,480L464,558L600,471Z" fill="#5a5a5a" stroke="#5a5a5a" stroke-width="1.51"/><path d="M533,-75L445,88L632,73Z" fill="#484848" stroke="#484848" stroke-width="1.51"/><path d="M571,767L475,869L592,892Z" fill="#525252" stroke="#525252" stroke-width="1.51"/><path d="M445,88L458,211L609,194Z" fill="#4f4f4f" stroke="#4f4f4f" stroke-width="1.51"/><path d="M458,211L456,291L609,194Z" fill="#515151" stroke="#515151" stroke-width="1.51"/><path d="M518,753L475,869L571,767Z" fill="#535353" stroke="#535353" stroke-width="1.51"/><path d="M475,869L506,982L592,892Z" fill="#4f4f4f" stroke="#4f4f4f" stroke-width="1.51"/><path d="M506,982L493,1159L592,1098Z" fill="#474747" stroke="#474747" stroke-width="1.51"/><path d="M504,-254L533,-75L588,-163Z" fill="#3d3d3d" stroke="#3d3d3d" stroke-width="1.51"/><path d="M456,291L390,345L491,480Z" fill="#555555" stroke="#555555" stroke-width="1.51"/><path d="M464,558L385,713L518,753Z" fill="#565656" stroke="#565656" stroke-width="1.51"/><path d="M390,345L400,444L491,480Z" fill="#565656" stroke="#565656" stroke-width="1.51"/><path d="M313,1059L493,1159L506,982Z" fill="#464646" stroke="#464646" stroke-width="1.51"/><path d="M493,1159L404,1198L515,1307Z" fill="#3d3d3d" stroke="#3d3d3d" stroke-width="1.51"/><path d="M323,-91L445,88L533,-75Z" fill="#434343" stroke="#434343" stroke-width="1.51"/><path d="M504,-254L330,-202L533,-75Z" fill="#3a3a3a" stroke="#3a3a3a" stroke-width="1.51"/><path d="M330,-202L323,-91L533,-75Z" fill="#3d3d3d" stroke="#3d3d3d" stroke-width="1.51"/><path d="M323,-91L349,70L445,88Z" fill="#454545" stroke="#454545" stroke-width="1.51"/><path d="M377,841L475,869L518,753Z" fill="#515151" stroke="#515151" stroke-width="1.51"/><path d="M385,713L377,841L518,753Z" fill="#525252" stroke="#525252" stroke-width="1.51"/><path d="M313,1059L404,1198L493,1159Z" fill="#404040" stroke="#404040" stroke-width="1.51"/><path d="M404,1198L319,1333L515,1307Z" fill="#393939" stroke="#393939" stroke-width="1.51"/><path d="M475,869L377,841L506,982Z" fill="#4e4e4e" stroke="#4e4e4e" stroke-width="1.51"/><path d="M377,841L313,1059L506,982Z" fill="#4b4b4b" stroke="#4b4b4b" stroke-width="1.51"/><path d="M400,444L464,558L491,480Z" fill="#595959" stroke="#595959" stroke-width="1.51"/><path d="M319,581L385,713L464,558Z" fill="#575757" stroke="#575757" stroke-width="1.51"/><path d="M57,1267L-45,1295L319,1333Z" fill="#2d2d2d" stroke="#2d2d2d" stroke-width="1.51"/><path d="M445,88L349,70L458,211Z" fill="#4c4c4c" stroke="#4c4c4c" stroke-width="1.51"/><path d="M349,70L300,235L458,211Z" fill="#4c4c4c" stroke="#4c4c4c" stroke-width="1.51"/><path d="M300,235L456,291L458,211Z" fill="#4f4f4f" stroke="#4f4f4f" stroke-width="1.51"/><path d="M400,444L319,581L464,558Z" fill="#595959" stroke="#595959" stroke-width="1.51"/><path d="M300,235L390,345L456,291Z" fill="#505050" stroke="#505050" stroke-width="1.51"/><path d="M30,-203L183,-155L330,-202Z" fill="#313131" stroke="#313131" stroke-width="1.51"/><path d="M323,-91L268,18L349,70Z" fill="#414141" stroke="#414141" stroke-width="1.51"/><path d="M207,833L313,1059L377,841Z" fill="#4a4a4a" stroke="#4a4a4a" stroke-width="1.51"/><path d="M220,448L319,581L400,444Z" fill="#555555" stroke="#555555" stroke-width="1.51"/><path d="M390,345L267,379L400,444Z" fill="#535353" stroke="#535353" stroke-width="1.51"/><path d="M252,1140L319,1333L404,1198Z" fill="#3a3a3a" stroke="#3a3a3a" stroke-width="1.51"/><path d="M313,1059L252,1140L404,1198Z" fill="#3f3f3f" stroke="#3f3f3f" stroke-width="1.51"/><path d="M207,833L377,841L385,713Z" fill="#4f4f4f" stroke="#4f4f4f" stroke-width="1.51"/><path d="M200,716L207,833L385,713Z" fill="#4e4e4e" stroke="#4e4e4e" stroke-width="1.51"/><path d="M267,379L220,448L400,444Z" fill="#525252" stroke="#525252" stroke-width="1.51"/><path d="M267,580L200,716L319,581Z" fill="#525252" stroke="#525252" stroke-width="1.51"/><path d="M319,581L200,716L385,713Z" fill="#525252" stroke="#525252" stroke-width="1.51"/><path d="M300,235L267,379L390,345Z" fill="#4f4f4f" stroke="#4f4f4f" stroke-width="1.51"/><path d="M207,833L165,1038L313,1059Z" fill="#444444" stroke="#444444" stroke-width="1.51"/><path d="M220,448L267,580L319,581Z" fill="#555555" stroke="#555555" stroke-width="1.51"/><path d="M268,18L212,243L300,235Z" fill="#484848" stroke="#484848" stroke-width="1.51"/><path d="M166,1249L57,1267L319,1333Z" fill="#303030" stroke="#303030" stroke-width="1.51"/><path d="M252,1140L166,1249L319,1333Z" fill="#353535" stroke="#353535" stroke-width="1.51"/><path d="M228,-103L323,-91L330,-202Z" fill="#393939" stroke="#393939" stroke-width="1.51"/><path d="M268,18L300,235L349,70Z" fill="#474747" stroke="#474747" stroke-width="1.51"/><path d="M123,985L165,1038L207,833Z" fill="#434343" stroke="#434343" stroke-width="1.51"/><path d="M120,61L212,243L268,18Z" fill="#434343" stroke="#434343" stroke-width="1.51"/><path d="M212,243L267,379L300,235Z" fill="#4c4c4c" stroke="#4c4c4c" stroke-width="1.51"/><path d="M228,-103L268,18L323,-91Z" fill="#3c3c3c" stroke="#3c3c3c" stroke-width="1.51"/><path d="M183,-155L228,-103L330,-202Z" fill="#363636" stroke="#363636" stroke-width="1.51"/><path d="M165,1038L252,1140L313,1059Z" fill="#3e3e3e" stroke="#3e3e3e" stroke-width="1.51"/><path d="M121,873L123,985L207,833Z" fill="#444444" stroke="#444444" stroke-width="1.51"/><path d="M120,61L124,232L212,243Z" fill="#444444" stroke="#444444" stroke-width="1.51"/><path d="M70,295L220,448L267,379Z" fill="#4c4c4c" stroke="#4c4c4c" stroke-width="1.51"/><path d="M212,243L70,295L267,379Z" fill="#4a4a4a" stroke="#4a4a4a" stroke-width="1.51"/><path d="M220,448L33,568L267,580Z" fill="#515151" stroke="#515151" stroke-width="1.51"/><path d="M33,568L200,716L267,580Z" fill="#4e4e4e" stroke="#4e4e4e" stroke-width="1.51"/><path d="M228,-103L99,-76L268,18Z" fill="#3a3a3a" stroke="#3a3a3a" stroke-width="1.51"/><path d="M99,-76L120,61L268,18Z" fill="#3b3b3b" stroke="#3b3b3b" stroke-width="1.51"/><path d="M120,1095L166,1249L252,1140Z" fill="#373737" stroke="#373737" stroke-width="1.51"/><path d="M165,1038L120,1095L252,1140Z" fill="#3b3b3b" stroke="#3b3b3b" stroke-width="1.51"/><path d="M124,232L70,295L212,243Z" fill="#464646" stroke="#464646" stroke-width="1.51"/><path d="M44,464L33,568L220,448Z" fill="#4c4c4c" stroke="#4c4c4c" stroke-width="1.51"/><path d="M70,295L44,464L220,448Z" fill="#4a4a4a" stroke="#4a4a4a" stroke-width="1.51"/><path d="M183,-155L99,-76L228,-103Z" fill="#353535" stroke="#353535" stroke-width="1.51"/><path d="M33,568L45,739L200,716Z" fill="#4a4a4a" stroke="#4a4a4a" stroke-width="1.51"/><path d="M200,716L45,739L207,833Z" fill="#494949" stroke="#494949" stroke-width="1.51"/><path d="M45,739L121,873L207,833Z" fill="#464646" stroke="#464646" stroke-width="1.51"/><path d="M-192,-180L-58,-174L30,-203Z" fill="#282828" stroke="#282828" stroke-width="1.51"/><path d="M120,1095L57,1267L166,1249Z" fill="#323232" stroke="#323232" stroke-width="1.51"/><path d="M30,-203L99,-76L183,-155Z" fill="#313131" stroke="#313131" stroke-width="1.51"/><path d="M123,985L120,1095L165,1038Z" fill="#3d3d3d" stroke="#3d3d3d" stroke-width="1.51"/><path d="M-43,36L-77,152L120,61Z" fill="#3a3a3a" stroke="#3a3a3a" stroke-width="1.51"/><path d="M99,-76L-43,36L120,61Z" fill="#383838" stroke="#383838" stroke-width="1.51"/><path d="M-65,1181L57,1267L120,1095Z" fill="#303030" stroke="#303030" stroke-width="1.51"/><path d="M45,739L-92,889L121,873Z" fill="#414141" stroke="#414141" stroke-width="1.51"/><path d="M121,873L-58,973L123,985Z" fill="#3f3f3f" stroke="#3f3f3f" stroke-width="1.51"/><path d="M-58,973L120,1095L123,985Z" fill="#3b3b3b" stroke="#3b3b3b" stroke-width="1.51"/><path d="M120,61L-77,152L124,232Z" fill="#404040" stroke="#404040" stroke-width="1.51"/><path d="M-77,152L70,295L124,232Z" fill="#414141" stroke="#414141" stroke-width="1.51"/><path d="M-92,889L-58,973L121,873Z" fill="#3e3e3e" stroke="#3e3e3e" stroke-width="1.51"/><path d="M-58,973L-65,1181L120,1095Z" fill="#353535" stroke="#353535" stroke-width="1.51"/><path d="M-68,765L-92,889L45,739Z" fill="#404040" stroke="#404040" stroke-width="1.51"/><path d="M33,568L-23,583L45,739Z" fill="#484848" stroke="#484848" stroke-width="1.51"/><path d="M-95,349L44,464L70,295Z" fill="#444444" stroke="#444444" stroke-width="1.51"/><path d="M-81,-85L-43,36L99,-76Z" fill="#323232" stroke="#323232" stroke-width="1.51"/><path d="M30,-203L-58,-174L99,-76Z" fill="#2d2d2d" stroke="#2d2d2d" stroke-width="1.51"/><path d="M-58,-174L-81,-85L99,-76Z" fill="#2e2e2e" stroke="#2e2e2e" stroke-width="1.51"/><path d="M-77,152L-95,349L70,295Z" fill="#404040" stroke="#404040" stroke-width="1.51"/><path d="M-63,487L33,568L44,464Z" fill="#494949" stroke="#494949" stroke-width="1.51"/><path d="M-95,349L-63,487L44,464Z" fill="#454545" stroke="#454545" stroke-width="1.51"/><path d="M-23,583L-68,765L45,739Z" fill="#444444" stroke="#444444" stroke-width="1.51"/><path d="M-65,1181L-45,1295L57,1267Z" fill="#2b2b2b" stroke="#2b2b2b" stroke-width="1.51"/><path d="M-63,487L-23,583L33,568Z" fill="#494949" stroke="#494949" stroke-width="1.51"/><path d="M-176,1052L-65,1181L-58,973Z" fill="#323232" stroke="#323232" stroke-width="1.51"/><path d="M-63,487L-161,594L-23,583Z" fill="#464646" stroke="#464646" stroke-width="1.51"/><path d="M-161,594L-68,765L-23,583Z" fill="#434343" stroke="#434343" stroke-width="1.51"/><path d="M-238,177L-95,349L-77,152Z" fill="#3a3a3a" stroke="#3a3a3a" stroke-width="1.51"/><path d="M-161,594L-240,706L-68,765Z" fill="#3f3f3f" stroke="#3f3f3f" stroke-width="1.51"/><path d="M-176,1052L-174,1183L-65,1181Z" fill="#2c2c2c" stroke="#2c2c2c" stroke-width="1.51"/><path d="M-95,349L-177,375L-63,487Z" fill="#414141" stroke="#414141" stroke-width="1.51"/><path d="M-65,1181L-184,1250L-45,1295Z" fill="#282828" stroke="#282828" stroke-width="1.51"/><path d="M-226,20L-77,152L-43,36Z" fill="#353535" stroke="#353535" stroke-width="1.51"/><path d="M-81,-85L-226,20L-43,36Z" fill="#303030" stroke="#303030" stroke-width="1.51"/><path d="M-238,177L-177,375L-95,349Z" fill="#3c3c3c" stroke="#3c3c3c" stroke-width="1.51"/><path d="M-235,-46L-226,20L-81,-85Z" fill="#2c2c2c" stroke="#2c2c2c" stroke-width="1.51"/><path d="M-174,1183L-184,1250L-65,1181Z" fill="#292929" stroke="#292929" stroke-width="1.51"/><path d="M-201,510L-161,594L-63,487Z" fill="#444444" stroke="#444444" stroke-width="1.51"/><path d="M-177,375L-201,510L-63,487Z" fill="#414141" stroke="#414141" stroke-width="1.51"/><path d="M-92,889L-216,922L-58,973Z" fill="#383838" stroke="#383838" stroke-width="1.51"/><path d="M-216,922L-176,1052L-58,973Z" fill="#353535" stroke="#353535" stroke-width="1.51"/><path d="M-192,-180L-81,-85L-58,-174Z" fill="#282828" stroke="#282828" stroke-width="1.51"/><path d="M-240,706L-216,922L-92,889Z" fill="#393939" stroke="#393939" stroke-width="1.51"/><path d="M-240,706L-92,889L-68,765Z" fill="#3d3d3d" stroke="#3d3d3d" stroke-width="1.51"/><path d="M-226,20L-238,177L-77,152Z" fill="#353535" stroke="#353535" stroke-width="1.51"/><path d="M-192,-180L-235,-46L-81,-85Z" fill="#292929" stroke="#292929" stroke-width="1.51"/><path d="M-216,922L-240,706L-184,1250Z" fill="#343434" stroke="#343434" stroke-width="1.51"/><path d="M-201,510L-240,706L-161,594Z" fill="#404040" stroke="#404040" stroke-width="1.51"/><path d="M-176,1052L-216,922L-174,1183Z" fill="#303030" stroke="#303030" stroke-width="1.51"/><path d="M-216,922L-184,1250L-174,1183Z" fill="#2c2c2c" stroke="#2c2c2c" stroke-width="1.51"/><path d="M-238,177L-201,510L-177,375Z" fill="#3b3b3b" stroke="#3b3b3b" stroke-width="1.51"/><path d="M-238,177L-240,706L-201,510Z" fill="#3f3f3f" stroke="#3f3f3f" stroke-width="1.51"/><path d="M-235,-46L-238,177L-226,20Z" fill="#303030" stroke="#303030" stroke-width="1.51"/></svg>