<svg xmlns="http://www.w3.org/2000/svg" width="1920" height="1080"><path d="M124,1317L-220,1286L268,1337Z" fill="#de2d2d" stroke="#de2d2d" stroke-width="1.51"/><path d="M-116,-229L431,-243L877,-256Z" fill="#d02625" stroke="#d02625" stroke-width="1.51"/><path d="M909,1286L456,1345L996,1290Z" fill="#be201f" stroke="#be201f" stroke-width="1.51"/><path d="M1195,1295L996,1290L1386,1325Z" fill="#c0201f" stroke="#c0201f" stroke-width="1.51"/><path d="M996,1290L456,1345L1386,1325Z" fill="#ba1d1d" stroke="#ba1d1d" stroke-width="1.51"/><path d="M877,-256L1000,-223L1488,-249Z" fill="#bf1f1f" stroke="#bf1f1f" stroke-width="1.51"/><path d="M1386,1325L456,1345L1606,1334Z" fill="#c02020" stroke="#c02020" stroke-width="1.51"/><path d="M877,-256L1488,-249L1735,-255Z" fill="#cb2323" stroke="#cb2323" stroke-width="1.51"/><path d="M877,-256L1735,-255L2031,-267Z" fill="#d22726" stroke="#d22726" stroke-width="1.51"/><path d="M1735,-255L1970,-253L2031,-267Z" fill="#e22f2f" stroke="#e22f2f" stroke-width="1.51"/><path d="M2056,-90L1987,87L2064,139Z" fill="#d22827" stroke="#d22827" stroke-width="1.51"/><path d="M1892,876L2083,1019L2103,812Z" fill="#cc2423" stroke="#cc2423" stroke-width="1.51"/><path d="M1969,1266L1746,1293L2104,1320Z" fill="#e12e2e" stroke="#e12e2e" stroke-width="1.51"/><path d="M1746,1293L1606,1334L2104,1320Z" fill="#dc2c2c" stroke="#dc2c2c" stroke-width="1.51"/><path d="M2036,536L1953,739L2121,740Z" fill="#bd1f1e" stroke="#bd1f1e" stroke-width="1.51"/><path d="M2053,440L2036,536L2121,740Z" fill="#ba1d1d" stroke="#ba1d1d" stroke-width="1.51"/><path d="M2031,-267L2056,-90L2122,269Z" fill="#d92b2a" stroke="#d92b2a" stroke-width="1.51"/><path d="M2064,139L1961,264L2122,269Z" fill="#ca2322" stroke="#ca2322" stroke-width="1.51"/><path d="M1961,264L2053,440L2122,269Z" fill="#c22120" stroke="#c22120" stroke-width="1.51"/><path d="M2056,-90L2064,139L2122,269Z" fill="#d12726" stroke="#d12726" stroke-width="1.51"/><path d="M2053,440L2121,740L2122,269Z" fill="#bd1e1e" stroke="#bd1e1e" stroke-width="1.51"/><path d="M2083,1019L1892,1147L2131,1135Z" fill="#d72a2a" stroke="#d72a2a" stroke-width="1.51"/><path d="M1892,1147L1969,1266L2131,1135Z" fill="#dc2c2c" stroke="#dc2c2c" stroke-width="1.51"/><path d="M1969,1266L2104,1320L2131,1135Z" fill="#e32f2f" stroke="#e32f2f" stroke-width="1.51"/><path d="M2121,740L2103,812L2131,1135Z" fill="#cf2525" stroke="#cf2525" stroke-width="1.51"/><path d="M2103,812L2083,1019L2131,1135Z" fill="#d32727" stroke="#d32727" stroke-width="1.51"/><path d="M2122,269L2121,740L2131,1135Z" fill="#c32120" stroke="#c32120" stroke-width="1.51"/><path d="M1892,876L1882,954L2083,1019Z" fill="#cb2424" stroke="#cb2424" stroke-width="1.51"/><path d="M1953,739L2103,812L2121,740Z" fill="#c32120" stroke="#c32120" stroke-width="1.51"/><path d="M2031,-267L1970,-253L2056,-90Z" fill="#e4302f" stroke="#e4302f" stroke-width="1.51"/><path d="M1953,739L1892,876L2103,812Z" fill="#c42120" stroke="#c42120" stroke-width="1.51"/><path d="M1961,264L1892,389L2053,440Z" fill="#bd1e1e" stroke="#bd1e1e" stroke-width="1.51"/><path d="M1924,-76L1987,87L2056,-90Z" fill="#d62a29" stroke="#d62a29" stroke-width="1.51"/><path d="M1882,954L1892,1147L2083,1019Z" fill="#cf2726" stroke="#cf2726" stroke-width="1.51"/><path d="M1922,514L1953,739L2036,536Z" fill="#b71c1c" stroke="#b71c1c" stroke-width="1.51"/><path d="M1970,-253L1924,-76L2056,-90Z" fill="#de2d2d" stroke="#de2d2d" stroke-width="1.51"/><path d="M1987,87L1961,264L2064,139Z" fill="#cb2423" stroke="#cb2423" stroke-width="1.51"/><path d="M1922,514L2036,536L2053,440Z" fill="#b81d1c" stroke="#b81d1c" stroke-width="1.51"/><path d="M1892,389L1922,514L2053,440Z" fill="#b81d1c" stroke="#b81d1c" stroke-width="1.51"/><path d="M1922,514L1828,594L1953,739Z" fill="#b41c1b" stroke="#b41c1b" stroke-width="1.51"/><path d="M1882,954L1807,1022L1892,1147Z" fill="#cb2524" stroke="#cb2524" stroke-width="1.51"/><path d="M1828,594L1837,722L1953,739Z" fill="#b61c1c" stroke="#b61c1c" stroke-width="1.51"/><path d="M1803,-106L1924,-76L1970,-253Z" fill="#da2c2c" stroke="#da2c2c" stroke-width="1.51"/><path d="M1736,187L1961,264L1987,87Z" fill="#c62221" stroke="#c62221" stroke-width="1.51"/><path d="M1793,45L1736,187L1987,87Z" fill="#c62222" stroke="#c62222" stroke-width="1.51"/><path d="M1924,-76L1793,45L1987,87Z" fill="#ce2726" stroke="#ce2726" stroke-width="1.51"/><path d="M1837,722L1892,876L1953,739Z" fill="#be1f1e" stroke="#be1f1e" stroke-width="1.51"/><path d="M1735,-255L1803,-106L1970,-253Z" fill="#db2c2c" stroke="#db2c2c" stroke-width="1.51"/><path d="M1892,1147L1746,1293L1969,1266Z" fill="#d92b2b" stroke="#d92b2b" stroke-width="1.51"/><path d="M1736,187L1892,389L1961,264Z" fill="#be1e1e" stroke="#be1e1e" stroke-width="1.51"/><path d="M1736,187L1750,417L1892,389Z" fill="#b61c1b" stroke="#b61c1b" stroke-width="1.51"/><path d="M1729,1188L1746,1293L1892,1147Z" fill="#d32928" stroke="#d32928" stroke-width="1.51"/><path d="M1892,389L1750,417L1922,514Z" fill="#b31b1a" stroke="#b31b1a" stroke-width="1.51"/><path d="M1750,417L1828,594L1922,514Z" fill="#af1919" stroke="#af1919" stroke-width="1.51"/><path d="M1803,-106L1793,45L1924,-76Z" fill="#d02727" stroke="#d02727" stroke-width="1.51"/><path d="M1807,1022L1729,1188L1892,1147Z" fill="#ce2726" stroke="#ce2726" stroke-width="1.51"/><path d="M1746,891L1882,954L1892,876Z" fill="#c32020" stroke="#c32020" stroke-width="1.51"/><path d="M1837,722L1746,891L1892,876Z" fill="#be1e1e" stroke="#be1e1e" stroke-width="1.51"/><path d="M1746,891L1807,1022L1882,954Z" fill="#c42121" stroke="#c42121" stroke-width="1.51"/><path d="M1736,187L1657,361L1750,417Z" fill="#b31a1a" stroke="#b31a1a" stroke-width="1.51"/><path d="M1667,-86L1793,45L1803,-106Z" fill="#cc2625" stroke="#cc2625" stroke-width="1.51"/><path d="M1750,417L1594,593L1828,594Z" fill="#a91615" stroke="#a91615" stroke-width="1.51"/><path d="M1828,594L1687,722L1837,722Z" fill="#b21a19" stroke="#b21a19" stroke-width="1.51"/><path d="M1687,722L1746,891L1837,722Z" fill="#b71b1b" stroke="#b71b1b" stroke-width="1.51"/><path d="M1687,722L1690,879L1746,891Z" fill="#b81b1b" stroke="#b81b1b" stroke-width="1.51"/><path d="M1594,593L1687,722L1828,594Z" fill="#ab1717" stroke="#ab1717" stroke-width="1.51"/><path d="M1654,105L1736,187L1793,45Z" fill="#c01f1f" stroke="#c01f1f" stroke-width="1.51"/><path d="M1735,-255L1667,-86L1803,-106Z" fill="#d22828" stroke="#d22828" stroke-width="1.51"/><path d="M1746,891L1600,998L1807,1022Z" fill="#c01f1f" stroke="#c01f1f" stroke-width="1.51"/><path d="M1600,998L1729,1188L1807,1022Z" fill="#c52322" stroke="#c52322" stroke-width="1.51"/><path d="M1616,-165L1667,-86L1735,-255Z" fill="#d02727" stroke="#d02727" stroke-width="1.51"/><path d="M1690,879L1600,998L1746,891Z" fill="#bc1d1d" stroke="#bc1d1d" stroke-width="1.51"/><path d="M1667,-86L1654,105L1793,45Z" fill="#c42222" stroke="#c42222" stroke-width="1.51"/><path d="M1600,998L1608,1182L1729,1188Z" fill="#c62322" stroke="#c62322" stroke-width="1.51"/><path d="M1654,184L1657,361L1736,187Z" fill="#b71b1b" stroke="#b71b1b" stroke-width="1.51"/><path d="M1654,105L1654,184L1736,187Z" fill="#bc1d1d" stroke="#bc1d1d" stroke-width="1.51"/><path d="M1729,1188L1608,1182L1746,1293Z" fill="#cf2727" stroke="#cf2727" stroke-width="1.51"/><path d="M1608,1182L1606,1334L1746,1293Z" fill="#d12727" stroke="#d12727" stroke-width="1.51"/><path d="M1657,361L1594,593L1750,417Z" fill="#a91616" stroke="#a91616" stroke-width="1.51"/><path d="M1488,-249L1616,-165L1735,-255Z" fill="#d22726" stroke="#d22726" stroke-width="1.51"/><path d="M1000,-223L1208,-171L1488,-249Z" fill="#c12020" stroke="#c12020" stroke-width="1.51"/><path d="M1600,998L1535,1156L1608,1182Z" fill="#c42121" stroke="#c42121" stroke-width="1.51"/><path d="M1499,545L1594,593L1657,361Z" fill="#a51313" stroke="#a51313" stroke-width="1.51"/><path d="M1472,394L1499,545L1657,361Z" fill="#a61413" stroke="#a61413" stroke-width="1.51"/><path d="M1654,184L1536,284L1657,361Z" fill="#b21818" stroke="#b21818" stroke-width="1.51"/><path d="M1501,-30L1654,105L1667,-86Z" fill="#c22121" stroke="#c22121" stroke-width="1.51"/><path d="M1594,593L1517,726L1687,722Z" fill="#aa1616" stroke="#aa1616" stroke-width="1.51"/><path d="M1441,870L1600,998L1690,879Z" fill="#b81b1b" stroke="#b81b1b" stroke-width="1.51"/><path d="M1517,726L1441,870L1690,879Z" fill="#b21818" stroke="#b21818" stroke-width="1.51"/><path d="M1687,722L1517,726L1690,879Z" fill="#b11818" stroke="#b11818" stroke-width="1.51"/><path d="M1208,-171L1311,-177L1488,-249Z" fill="#c52121" stroke="#c52121" stroke-width="1.51"/><path d="M1616,-165L1501,-30L1667,-86Z" fill="#c92423" stroke="#c92423" stroke-width="1.51"/><path d="M1501,-30L1445,124L1654,105Z" fill="#bb1d1d" stroke="#bb1d1d" stroke-width="1.51"/><path d="M1654,105L1445,124L1654,184Z" fill="#ba1c1b" stroke="#ba1c1b" stroke-width="1.51"/><path d="M1536,284L1472,394L1657,361Z" fill="#ab1615" stroke="#ab1615" stroke-width="1.51"/><path d="M1487,1274L1606,1334L1608,1182Z" fill="#ce2525" stroke="#ce2525" stroke-width="1.51"/><path d="M1445,124L1536,284L1654,184Z" fill="#b61919" stroke="#b61919" stroke-width="1.51"/><path d="M1434,1018L1535,1156L1600,998Z" fill="#bd1e1e" stroke="#bd1e1e" stroke-width="1.51"/><path d="M1487,1274L1386,1325L1606,1334Z" fill="#ce2524" stroke="#ce2524" stroke-width="1.51"/><path d="M1535,1156L1487,1274L1608,1182Z" fill="#c92323" stroke="#c92323" stroke-width="1.51"/><path d="M1488,-249L1501,-30L1616,-165Z" fill="#cb2423" stroke="#cb2423" stroke-width="1.51"/><path d="M1441,870L1434,1018L1600,998Z" fill="#b71a1a" stroke="#b71a1a" stroke-width="1.51"/><path d="M1499,545L1517,726L1594,593Z" fill="#a51313" stroke="#a51313" stroke-width="1.51"/><path d="M431,-243L609,-223L877,-256Z" fill="#c52121" stroke="#c52121" stroke-width="1.51"/><path d="M1488,-249L1311,-177L1501,-30Z" fill="#c72221" stroke="#c72221" stroke-width="1.51"/><path d="M1311,-177L1299,-109L1501,-30Z" fill="#c1201f" stroke="#c1201f" stroke-width="1.51"/><path d="M1499,545L1374,718L1517,726Z" fill="#a41212" stroke="#a41212" stroke-width="1.51"/><path d="M1311,1128L1487,1274L1535,1156Z" fill="#c52121" stroke="#c52121" stroke-width="1.51"/><path d="M1434,1018L1311,1128L1535,1156Z" fill="#be1e1e" stroke="#be1e1e" stroke-width="1.51"/><path d="M1370,281L1472,394L1536,284Z" fill="#aa1414" stroke="#aa1414" stroke-width="1.51"/><path d="M1445,124L1370,281L1536,284Z" fill="#b11515" stroke="#b11515" stroke-width="1.51"/><path d="M1472,394L1315,509L1499,545Z" fill="#a11011" stroke="#a11011" stroke-width="1.51"/><path d="M1368,77L1445,124L1501,-30Z" fill="#b91b1b" stroke="#b91b1b" stroke-width="1.51"/><path d="M1374,718L1441,870L1517,726Z" fill="#ab1414" stroke="#ab1414" stroke-width="1.51"/><path d="M1377,991L1434,1018L1441,870Z" fill="#b51918" stroke="#b51918" stroke-width="1.51"/><path d="M1374,718L1349,834L1441,870Z" fill="#ab1313" stroke="#ab1313" stroke-width="1.51"/><path d="M1311,1128L1386,1325L1487,1274Z" fill="#c62221" stroke="#c62221" stroke-width="1.51"/><path d="M1315,509L1374,718L1499,545Z" fill="#9f1010" stroke="#9f1010" stroke-width="1.51"/><path d="M1299,-109L1368,77L1501,-30Z" fill="#bc1d1d" stroke="#bc1d1d" stroke-width="1.51"/><path d="M1344,365L1315,509L1472,394Z" fill="#a11110" stroke="#a11110" stroke-width="1.51"/><path d="M1370,281L1344,365L1472,394Z" fill="#a51312" stroke="#a51312" stroke-width="1.51"/><path d="M1377,991L1311,1128L1434,1018Z" fill="#b71b1b" stroke="#b71b1b" stroke-width="1.51"/><path d="M1349,834L1377,991L1441,870Z" fill="#b11716" stroke="#b11716" stroke-width="1.51"/><path d="M1368,77L1370,281L1445,124Z" fill="#b11717" stroke="#b11717" stroke-width="1.51"/><path d="M705,1271L456,1345L909,1286Z" fill="#c12020" stroke="#c12020" stroke-width="1.51"/><path d="M1179,839L1157,975L1349,834Z" fill="#a81413" stroke="#a81413" stroke-width="1.51"/><path d="M1299,-109L1227,114L1368,77Z" fill="#b41a1a" stroke="#b41a1a" stroke-width="1.51"/><path d="M1368,77L1227,114L1370,281Z" fill="#ae1616" stroke="#ae1616" stroke-width="1.51"/><path d="M1227,114L1201,186L1370,281Z" fill="#aa1414" stroke="#aa1414" stroke-width="1.51"/><path d="M1315,509L1221,716L1374,718Z" fill="#9c100f" stroke="#9c100f" stroke-width="1.51"/><path d="M1349,834L1157,975L1377,991Z" fill="#ad1616" stroke="#ad1616" stroke-width="1.51"/><path d="M1311,1128L1195,1295L1386,1325Z" fill="#c22020" stroke="#c22020" stroke-width="1.51"/><path d="M1221,716L1349,834L1374,718Z" fill="#a31111" stroke="#a31111" stroke-width="1.51"/><path d="M1182,1095L1311,1128L1377,991Z" fill="#b41b1b" stroke="#b41b1b" stroke-width="1.51"/><path d="M1157,975L1182,1095L1377,991Z" fill="#af1818" stroke="#af1818" stroke-width="1.51"/><path d="M1161,343L1344,365L1370,281Z" fill="#a21212" stroke="#a21212" stroke-width="1.51"/><path d="M1201,186L1161,343L1370,281Z" fill="#a31111" stroke="#a31111" stroke-width="1.51"/><path d="M1129,566L1221,716L1315,509Z" fill="#960d0e" stroke="#960d0e" stroke-width="1.51"/><path d="M1161,343L1315,509L1344,365Z" fill="#9c100f" stroke="#9c100f" stroke-width="1.51"/><path d="M1221,716L1179,839L1349,834Z" fill="#a31212" stroke="#a31212" stroke-width="1.51"/><path d="M1130,-104L1227,114L1299,-109Z" fill="#b41b1b" stroke="#b41b1b" stroke-width="1.51"/><path d="M1208,-171L1299,-109L1311,-177Z" fill="#bf1f1f" stroke="#bf1f1f" stroke-width="1.51"/><path d="M1182,1095L1195,1295L1311,1128Z" fill="#b91d1d" stroke="#b91d1d" stroke-width="1.51"/><path d="M1161,343L1129,566L1315,509Z" fill="#960d0d" stroke="#960d0d" stroke-width="1.51"/><path d="M1208,-171L1130,-104L1299,-109Z" fill="#bb1e1d" stroke="#bb1e1d" stroke-width="1.51"/><path d="M1034,-47L1040,62L1130,-104Z" fill="#af1918" stroke="#af1918" stroke-width="1.51"/><path d="M1072,536L1129,566L1161,343Z" fill="#930c0c" stroke="#930c0c" stroke-width="1.51"/><path d="M1182,1095L1003,1123L1195,1295Z" fill="#b61c1b" stroke="#b61c1b" stroke-width="1.51"/><path d="M1068,188L1161,343L1201,186Z" fill="#a21111" stroke="#a21111" stroke-width="1.51"/><path d="M1032,713L1179,839L1221,716Z" fill="#9c0f0f" stroke="#9c0f0f" stroke-width="1.51"/><path d="M1129,566L1032,713L1221,716Z" fill="#960d0d" stroke="#960d0d" stroke-width="1.51"/><path d="M1130,-104L1040,62L1227,114Z" fill="#ad1818" stroke="#ad1818" stroke-width="1.51"/><path d="M1068,188L1201,186L1227,114Z" fill="#a71413" stroke="#a71413" stroke-width="1.51"/><path d="M1040,62L1068,188L1227,114Z" fill="#a71414" stroke="#a71414" stroke-width="1.51"/><path d="M1003,1123L996,1290L1195,1295Z" fill="#b81d1c" stroke="#b81d1c" stroke-width="1.51"/><path d="M1000,-223L1130,-104L1208,-171Z" fill="#ba1e1d" stroke="#ba1e1d" stroke-width="1.51"/><path d="M1034,335L1072,536L1161,343Z" fill="#950d0d" stroke="#950d0d" stroke-width="1.51"/><path d="M1061,987L1157,975L1179,839Z" fill="#a71413" stroke="#a71413" stroke-width="1.51"/><path d="M1157,975L1061,987L1182,1095Z" fill="#ab1616" stroke="#ab1616" stroke-width="1.51"/><path d="M1068,188L1034,335L1161,343Z" fill="#9c1010" stroke="#9c1010" stroke-width="1.51"/><path d="M995,885L1061,987L1179,839Z" fill="#a41212" stroke="#a41212" stroke-width="1.51"/><path d="M1032,713L995,885L1179,839Z" fill="#9e1010" stroke="#9e1010" stroke-width="1.51"/><path d="M1061,987L1003,1123L1182,1095Z" fill="#ac1717" stroke="#ac1717" stroke-width="1.51"/><path d="M-116,-229L155,-199L431,-243Z" fill="#d82a2a" stroke="#d82a2a" stroke-width="1.51"/><path d="M1072,536L1032,713L1129,566Z" fill="#920c0c" stroke="#920c0c" stroke-width="1.51"/><path d="M1000,-223L1034,-47L1130,-104Z" fill="#b51c1b" stroke="#b51c1b" stroke-width="1.51"/><path d="M1000,-223L918,-44L1034,-47Z" fill="#b21b1a" stroke="#b21b1a" stroke-width="1.51"/><path d="M848,254L1034,335L1068,188Z" fill="#9c0f0f" stroke="#9c0f0f" stroke-width="1.51"/><path d="M1040,62L892,85L1068,188Z" fill="#a41313" stroke="#a41313" stroke-width="1.51"/><path d="M920,658L1032,713L1072,536Z" fill="#910b0b" stroke="#910b0b" stroke-width="1.51"/><path d="M844,500L920,658L1072,536Z" fill="#8d0809" stroke="#8d0809" stroke-width="1.51"/><path d="M1034,335L861,399L1072,536Z" fill="#920b0b" stroke="#920b0b" stroke-width="1.51"/><path d="M861,399L844,500L1072,536Z" fill="#8f0a0a" stroke="#8f0a0a" stroke-width="1.51"/><path d="M907,1109L1003,1123L1061,987Z" fill="#aa1716" stroke="#aa1716" stroke-width="1.51"/><path d="M892,85L848,254L1068,188Z" fill="#a11111" stroke="#a11111" stroke-width="1.51"/><path d="M867,788L995,885L1032,713Z" fill="#990e0e" stroke="#990e0e" stroke-width="1.51"/><path d="M995,885L829,1010L1061,987Z" fill="#a31212" stroke="#a31212" stroke-width="1.51"/><path d="M829,1010L907,1109L1061,987Z" fill="#a71515" stroke="#a71515" stroke-width="1.51"/><path d="M909,1286L996,1290L1003,1123Z" fill="#b51b1b" stroke="#b51b1b" stroke-width="1.51"/><path d="M1034,-47L918,-44L1040,62Z" fill="#ab1717" stroke="#ab1717" stroke-width="1.51"/><path d="M918,-44L892,85L1040,62Z" fill="#a81515" stroke="#a81515" stroke-width="1.51"/><path d="M907,1109L909,1286L1003,1123Z" fill="#b11a1a" stroke="#b11a1a" stroke-width="1.51"/><path d="M920,658L867,788L1032,713Z" fill="#940d0d" stroke="#940d0d" stroke-width="1.51"/><path d="M848,254L861,399L1034,335Z" fill="#980d0d" stroke="#980d0d" stroke-width="1.51"/><path d="M877,-256L918,-44L1000,-223Z" fill="#b71c1c" stroke="#b71c1c" stroke-width="1.51"/><path d="M867,788L829,1010L995,885Z" fill="#a21111" stroke="#a21111" stroke-width="1.51"/><path d="M544,1289L456,1345L705,1271Z" fill="#c82221" stroke="#c82221" stroke-width="1.51"/><path d="M736,578L745,649L844,500Z" fill="#930c0c" stroke="#930c0c" stroke-width="1.51"/><path d="M746,872L829,1010L867,788Z" fill="#a41211" stroke="#a41211" stroke-width="1.51"/><path d="M609,-223L707,-185L877,-256Z" fill="#bf201f" stroke="#bf201f" stroke-width="1.51"/><path d="M718,145L848,254L892,85Z" fill="#a51313" stroke="#a51313" stroke-width="1.51"/><path d="M907,1109L723,1155L909,1286Z" fill="#b41c1b" stroke="#b41c1b" stroke-width="1.51"/><path d="M723,1155L705,1271L909,1286Z" fill="#ba1e1d" stroke="#ba1e1d" stroke-width="1.51"/><path d="M757,-82L892,85L918,-44Z" fill="#ae1818" stroke="#ae1818" stroke-width="1.51"/><path d="M877,-256L757,-82L918,-44Z" fill="#b61c1b" stroke="#b61c1b" stroke-width="1.51"/><path d="M745,649L867,788L920,658Z" fill="#960d0e" stroke="#960d0e" stroke-width="1.51"/><path d="M844,500L745,649L920,658Z" fill="#920c0c" stroke="#920c0c" stroke-width="1.51"/><path d="M707,-185L757,-82L877,-256Z" fill="#bb1e1d" stroke="#bb1e1d" stroke-width="1.51"/><path d="M829,1010L723,1155L907,1109Z" fill="#ae1818" stroke="#ae1818" stroke-width="1.51"/><path d="M718,145L720,210L848,254Z" fill="#a51212" stroke="#a51212" stroke-width="1.51"/><path d="M848,254L775,393L861,399Z" fill="#990e0e" stroke="#990e0e" stroke-width="1.51"/><path d="M757,-82L718,145L892,85Z" fill="#ab1717" stroke="#ab1717" stroke-width="1.51"/><path d="M775,393L844,500L861,399Z" fill="#940d0d" stroke="#940d0d" stroke-width="1.51"/><path d="M738,1006L723,1155L829,1010Z" fill="#ad1818" stroke="#ad1818" stroke-width="1.51"/><path d="M745,649L746,872L867,788Z" fill="#9c1010" stroke="#9c1010" stroke-width="1.51"/><path d="M746,872L738,1006L829,1010Z" fill="#a81515" stroke="#a81515" stroke-width="1.51"/><path d="M720,210L775,393L848,254Z" fill="#9e1010" stroke="#9e1010" stroke-width="1.51"/><path d="M775,393L736,578L844,500Z" fill="#930c0c" stroke="#930c0c" stroke-width="1.51"/><path d="M595,43L718,145L757,-82Z" fill="#af1919" stroke="#af1919" stroke-width="1.51"/><path d="M611,260L632,371L720,210Z" fill="#a41212" stroke="#a41212" stroke-width="1.51"/><path d="M601,640L562,805L745,649Z" fill="#9d1010" stroke="#9d1010" stroke-width="1.51"/><path d="M745,649L562,805L746,872Z" fill="#a11111" stroke="#a11111" stroke-width="1.51"/><path d="M581,498L736,578L775,393Z" fill="#960d0d" stroke="#960d0d" stroke-width="1.51"/><path d="M632,371L581,498L775,393Z" fill="#9b0f0f" stroke="#9b0f0f" stroke-width="1.51"/><path d="M720,210L632,371L775,393Z" fill="#9e1010" stroke="#9e1010" stroke-width="1.51"/><path d="M638,1174L723,1155L738,1006Z" fill="#b41b1b" stroke="#b41b1b" stroke-width="1.51"/><path d="M589,971L738,1006L746,872Z" fill="#ab1615" stroke="#ab1615" stroke-width="1.51"/><path d="M707,-185L542,-19L757,-82Z" fill="#ba1d1d" stroke="#ba1d1d" stroke-width="1.51"/><path d="M542,-19L595,43L757,-82Z" fill="#b71c1b" stroke="#b71c1b" stroke-width="1.51"/><path d="M638,1174L705,1271L723,1155Z" fill="#bb1e1e" stroke="#bb1e1e" stroke-width="1.51"/><path d="M589,971L638,1174L738,1006Z" fill="#b11919" stroke="#b11919" stroke-width="1.51"/><path d="M736,578L601,640L745,649Z" fill="#980e0e" stroke="#980e0e" stroke-width="1.51"/><path d="M562,805L589,971L746,872Z" fill="#ab1514" stroke="#ab1514" stroke-width="1.51"/><path d="M609,-223L542,-19L707,-185Z" fill="#c0201f" stroke="#c0201f" stroke-width="1.51"/><path d="M581,498L601,640L736,578Z" fill="#980d0e" stroke="#980d0e" stroke-width="1.51"/><path d="M718,145L611,260L720,210Z" fill="#a81313" stroke="#a81313" stroke-width="1.51"/><path d="M595,43L611,260L718,145Z" fill="#ac1616" stroke="#ac1616" stroke-width="1.51"/><path d="M638,1174L544,1289L705,1271Z" fill="#c12020" stroke="#c12020" stroke-width="1.51"/><path d="M416,-93L542,-19L609,-223Z" fill="#c32020" stroke="#c32020" stroke-width="1.51"/><path d="M595,43L459,145L611,260Z" fill="#b01717" stroke="#b01717" stroke-width="1.51"/><path d="M611,260L449,386L632,371Z" fill="#a41212" stroke="#a41212" stroke-width="1.51"/><path d="M449,386L581,498L632,371Z" fill="#a01110" stroke="#a01110" stroke-width="1.51"/><path d="M589,971L428,1122L638,1174Z" fill="#ba1c1c" stroke="#ba1c1c" stroke-width="1.51"/><path d="M428,1122L544,1289L638,1174Z" fill="#c22020" stroke="#c22020" stroke-width="1.51"/><path d="M562,805L472,946L589,971Z" fill="#b01616" stroke="#b01616" stroke-width="1.51"/><path d="M581,498L468,572L601,640Z" fill="#9d0f0f" stroke="#9d0f0f" stroke-width="1.51"/><path d="M475,832L472,946L562,805Z" fill="#b01616" stroke="#b01616" stroke-width="1.51"/><path d="M472,946L428,1122L589,971Z" fill="#b71b1b" stroke="#b71b1b" stroke-width="1.51"/><path d="M396,665L562,805L601,640Z" fill="#a41212" stroke="#a41212" stroke-width="1.51"/><path d="M431,-243L416,-93L609,-223Z" fill="#c92322" stroke="#c92322" stroke-width="1.51"/><path d="M459,145L391,285L611,260Z" fill="#b01616" stroke="#b01616" stroke-width="1.51"/><path d="M391,285L449,386L611,260Z" fill="#aa1414" stroke="#aa1414" stroke-width="1.51"/><path d="M468,572L396,665L601,640Z" fill="#a21111" stroke="#a21111" stroke-width="1.51"/><path d="M396,665L475,832L562,805Z" fill="#aa1414" stroke="#aa1414" stroke-width="1.51"/><path d="M542,-19L459,145L595,43Z" fill="#b61a1a" stroke="#b61a1a" stroke-width="1.51"/><path d="M449,386L468,572L581,498Z" fill="#a01010" stroke="#a01010" stroke-width="1.51"/><path d="M333,-45L459,145L542,-19Z" fill="#bc1d1c" stroke="#bc1d1c" stroke-width="1.51"/><path d="M416,-93L333,-45L542,-19Z" fill="#c22020" stroke="#c22020" stroke-width="1.51"/><path d="M428,1122L456,1345L544,1289Z" fill="#c92222" stroke="#c92222" stroke-width="1.51"/><path d="M335,1103L268,1337L428,1122Z" fill="#c92423" stroke="#c92423" stroke-width="1.51"/><path d="M428,1122L268,1337L456,1345Z" fill="#cd2524" stroke="#cd2524" stroke-width="1.51"/><path d="M314,144L391,285L459,145Z" fill="#b61919" stroke="#b61919" stroke-width="1.51"/><path d="M333,-45L314,144L459,145Z" fill="#bb1d1d" stroke="#bb1d1d" stroke-width="1.51"/><path d="M337,383L243,510L468,572Z" fill="#a51313" stroke="#a51313" stroke-width="1.51"/><path d="M449,386L337,383L468,572Z" fill="#a51313" stroke="#a51313" stroke-width="1.51"/><path d="M335,1103L428,1122L472,946Z" fill="#bd1e1e" stroke="#bd1e1e" stroke-width="1.51"/><path d="M283,957L335,1103L472,946Z" fill="#bb1d1d" stroke="#bb1d1d" stroke-width="1.51"/><path d="M283,957L472,946L475,832Z" fill="#b61919" stroke="#b61919" stroke-width="1.51"/><path d="M255,860L283,957L475,832Z" fill="#b71a1a" stroke="#b71a1a" stroke-width="1.51"/><path d="M396,665L282,741L475,832Z" fill="#ac1615" stroke="#ac1615" stroke-width="1.51"/><path d="M282,741L255,860L475,832Z" fill="#b21818" stroke="#b21818" stroke-width="1.51"/><path d="M155,-199L257,-162L431,-243Z" fill="#d12726" stroke="#d12726" stroke-width="1.51"/><path d="M243,510L396,665L468,572Z" fill="#a41313" stroke="#a41313" stroke-width="1.51"/><path d="M391,285L337,383L449,386Z" fill="#aa1515" stroke="#aa1515" stroke-width="1.51"/><path d="M257,-162L416,-93L431,-243Z" fill="#cc2524" stroke="#cc2524" stroke-width="1.51"/><path d="M257,-162L333,-45L416,-93Z" fill="#c92423" stroke="#c92423" stroke-width="1.51"/><path d="M314,144L260,267L391,285Z" fill="#b51919" stroke="#b51919" stroke-width="1.51"/><path d="M243,510L282,741L396,665Z" fill="#a81515" stroke="#a81515" stroke-width="1.51"/><path d="M260,267L337,383L391,285Z" fill="#af1717" stroke="#af1717" stroke-width="1.51"/><path d="M243,510L149,640L282,741Z" fill="#ab1717" stroke="#ab1717" stroke-width="1.51"/><path d="M126,34L314,144L333,-45Z" fill="#c02020" stroke="#c02020" stroke-width="1.51"/><path d="M138,-32L126,34L333,-45Z" fill="#c72323" stroke="#c72323" stroke-width="1.51"/><path d="M128,1177L268,1337L335,1103Z" fill="#ce2626" stroke="#ce2626" stroke-width="1.51"/><path d="M188,1022L128,1177L335,1103Z" fill="#c72323" stroke="#c72323" stroke-width="1.51"/><path d="M283,957L188,1022L335,1103Z" fill="#bf2020" stroke="#bf2020" stroke-width="1.51"/><path d="M260,267L101,384L337,383Z" fill="#b01818" stroke="#b01818" stroke-width="1.51"/><path d="M101,384L243,510L337,383Z" fill="#ac1717" stroke="#ac1717" stroke-width="1.51"/><path d="M257,-162L138,-32L333,-45Z" fill="#ca2524" stroke="#ca2524" stroke-width="1.51"/><path d="M-116,-229L30,-177L155,-199Z" fill="#de2d2d" stroke="#de2d2d" stroke-width="1.51"/><path d="M126,34L103,270L260,267Z" fill="#be1e1e" stroke="#be1e1e" stroke-width="1.51"/><path d="M126,34L260,267L314,144Z" fill="#bd1d1d" stroke="#bd1d1d" stroke-width="1.51"/><path d="M115,870L188,1022L255,860Z" fill="#be1e1e" stroke="#be1e1e" stroke-width="1.51"/><path d="M128,1177L124,1317L268,1337Z" fill="#d62929" stroke="#d62929" stroke-width="1.51"/><path d="M115,870L255,860L282,741Z" fill="#b71b1b" stroke="#b71b1b" stroke-width="1.51"/><path d="M149,640L115,870L282,741Z" fill="#b41a1a" stroke="#b41a1a" stroke-width="1.51"/><path d="M255,860L188,1022L283,957Z" fill="#bd1e1e" stroke="#bd1e1e" stroke-width="1.51"/><path d="M155,-199L138,-32L257,-162Z" fill="#d12827" stroke="#d12827" stroke-width="1.51"/><path d="M103,270L101,384L260,267Z" fill="#b71b1b" stroke="#b71b1b" stroke-width="1.51"/><path d="M102,529L149,640L243,510Z" fill="#ab1717" stroke="#ab1717" stroke-width="1.51"/><path d="M101,384L102,529L243,510Z" fill="#ae1918" stroke="#ae1918" stroke-width="1.51"/><path d="M11,141L103,270L126,34Z" fill="#c52121" stroke="#c52121" stroke-width="1.51"/><path d="M-4,798L115,870L149,640Z" fill="#ba1d1d" stroke="#ba1d1d" stroke-width="1.51"/><path d="M-29,715L-4,798L149,640Z" fill="#b91d1d" stroke="#b91d1d" stroke-width="1.51"/><path d="M30,-177L138,-32L155,-199Z" fill="#d52a2a" stroke="#d52a2a" stroke-width="1.51"/><path d="M115,870L-24,949L188,1022Z" fill="#c42121" stroke="#c42121" stroke-width="1.51"/><path d="M-21,1120L128,1177L188,1022Z" fill="#ce2626" stroke="#ce2626" stroke-width="1.51"/><path d="M-24,949L-21,1120L188,1022Z" fill="#cb2525" stroke="#cb2525" stroke-width="1.51"/><path d="M3,1239L-220,1286L124,1317Z" fill="#e02e2e" stroke="#e02e2e" stroke-width="1.51"/><path d="M3,1239L124,1317L128,1177Z" fill="#d82b2b" stroke="#d82b2b" stroke-width="1.51"/><path d="M30,-177L8,-62L138,-32Z" fill="#d42a2a" stroke="#d42a2a" stroke-width="1.51"/><path d="M102,529L13,524L149,640Z" fill="#af1919" stroke="#af1919" stroke-width="1.51"/><path d="M13,524L-29,715L149,640Z" fill="#b31c1b" stroke="#b31c1b" stroke-width="1.51"/><path d="M101,384L13,524L102,529Z" fill="#b11a19" stroke="#b11a19" stroke-width="1.51"/><path d="M11,141L0,257L103,270Z" fill="#c32020" stroke="#c32020" stroke-width="1.51"/><path d="M8,-62L126,34L138,-32Z" fill="#cd2726" stroke="#cd2726" stroke-width="1.51"/><path d="M-21,1120L3,1239L128,1177Z" fill="#d62a2a" stroke="#d62a2a" stroke-width="1.51"/><path d="M8,-62L11,141L126,34Z" fill="#cb2625" stroke="#cb2625" stroke-width="1.51"/><path d="M0,257L101,384L103,270Z" fill="#bb1e1d" stroke="#bb1e1d" stroke-width="1.51"/><path d="M-4,798L-24,949L115,870Z" fill="#c42121" stroke="#c42121" stroke-width="1.51"/><path d="M-66,335L13,524L101,384Z" fill="#b71d1c" stroke="#b71d1c" stroke-width="1.51"/><path d="M0,257L-66,335L101,384Z" fill="#bd1e1e" stroke="#bd1e1e" stroke-width="1.51"/><path d="M-110,1194L-220,1286L3,1239Z" fill="#e12e2e" stroke="#e12e2e" stroke-width="1.51"/><path d="M8,-62L-161,50L11,141Z" fill="#cf2726" stroke="#cf2726" stroke-width="1.51"/><path d="M-120,505L-29,715L13,524Z" fill="#b61c1b" stroke="#b61c1b" stroke-width="1.51"/><path d="M-66,335L-120,505L13,524Z" fill="#b81e1d" stroke="#b81e1d" stroke-width="1.51"/><path d="M-116,-229L8,-62L30,-177Z" fill="#dd2d2d" stroke="#dd2d2d" stroke-width="1.51"/><path d="M-24,949L-187,973L-21,1120Z" fill="#d02726" stroke="#d02726" stroke-width="1.51"/><path d="M-168,888L-24,949L-4,798Z" fill="#c92322" stroke="#c92322" stroke-width="1.51"/><path d="M-21,1120L-110,1194L3,1239Z" fill="#db2c2c" stroke="#db2c2c" stroke-width="1.51"/><path d="M-116,-229L-214,-15L8,-62Z" fill="#dd2d2d" stroke="#dd2d2d" stroke-width="1.51"/><path d="M-218,291L0,257L11,141Z" fill="#c72221" stroke="#c72221" stroke-width="1.51"/><path d="M-161,50L-218,291L11,141Z" fill="#cd2524" stroke="#cd2524" stroke-width="1.51"/><path d="M-214,-15L-161,50L8,-62Z" fill="#d72a2a" stroke="#d72a2a" stroke-width="1.51"/><path d="M-171,404L-120,505L-66,335Z" fill="#bd1f1e" stroke="#bd1f1e" stroke-width="1.51"/><path d="M-120,505L-209,720L-29,715Z" fill="#bc1e1e" stroke="#bc1e1e" stroke-width="1.51"/><path d="M-218,291L-66,335L0,257Z" fill="#c42120" stroke="#c42120" stroke-width="1.51"/><path d="M-209,720L-168,888L-29,715Z" fill="#c52121" stroke="#c52121" stroke-width="1.51"/><path d="M-29,715L-168,888L-4,798Z" fill="#c42120" stroke="#c42120" stroke-width="1.51"/><path d="M-187,973L-110,1194L-21,1120Z" fill="#d62a29" stroke="#d62a29" stroke-width="1.51"/><path d="M-168,888L-187,973L-24,949Z" fill="#ce2525" stroke="#ce2525" stroke-width="1.51"/><path d="M-218,291L-171,404L-66,335Z" fill="#c22020" stroke="#c22020" stroke-width="1.51"/><path d="M-187,973L-220,1286L-110,1194Z" fill="#de2d2c" stroke="#de2d2c" stroke-width="1.51"/><path d="M-171,404L-209,720L-120,505Z" fill="#b91d1d" stroke="#b91d1d" stroke-width="1.51"/><path d="M-218,291L-209,720L-171,404Z" fill="#be1f1e" stroke="#be1f1e" stroke-width="1.51"/><path d="M-214,-15L-218,291L-161,50Z" fill="#d32727" stroke="#d32727" stroke-width="1.51"/><path d="M-209,720L-187,973L-168,888Z" fill="#cd2423" stroke="#cd2423" stroke-width="1.51"/><path d="M-209,720L-220,1286L-187,973Z" fill="#d42827" stroke="#d42827" stroke-width="1.51"/><path d="M-218,291L-220,1286L-209,720Z" fill="#c72222" stroke="#c72222" stroke-width="1.51"/></svg>