<?xml version="1.0" encoding="utf-8"?>
<!-- Generator: Adobe Illustrator 16.0.0, SVG Export Plug-In . SVG Version: 6.00 Build 0)  -->
<!DOCTYPE svg PUBLIC "-//W3C//DTD SVG 1.0//EN" "http://www.w3.org/TR/2001/REC-SVG-20010904/DTD/svg10.dtd">
<svg version="1.0" id="Layer_1" xmlns:v="https://vecta.io/nano"
	 xmlns="http://www.w3.org/2000/svg" xmlns:xlink="http://www.w3.org/1999/xlink" x="0px" y="0px" width="52.667px"
	 height="24.161px" viewBox="0 0 52.667 24.161" enable-background="new 0 0 52.667 24.161" xml:space="preserve">
<g>
	<path fill="#ED1C24" d="M24.551,16.677l-0.494,0.58l-0.58,0.484l-0.638,0.396l-0.706,0.32l-0.724,0.223l-0.783,0.136l-0.764,0.048
		l-0.783-0.048l-0.793-0.125l-0.763-0.205l-0.755-0.3l-0.706-0.389l-0.666-0.463l-0.6-0.56l-0.532-0.617l-0.444-0.735l0.512,1.043
		l0.638,0.928l0.744,0.83l0.852,0.717l0.918,0.609l0.986,0.502l1.034,0.398l1.112,0.318l1.12,0.223l1.141,0.125l1.14,0.04
		l1.122-0.067l1.111-0.127l1.093-0.229l1.034-0.3l0.977-0.387l1.672,1.45v-6.188h-8.06L24.551,16.677z"/>
	<path fill="#939598" d="M38.065,7.437h-8.497l-0.31-0.416l-0.37-0.385l-0.396-0.358l-0.424-0.376l-0.455-0.311l-0.483-0.308
		l-0.522-0.28l-0.529-0.25l-0.58-0.232l-0.601-0.213l-0.6-0.174L23.697,3.98l-0.656-0.106l-0.668-0.086l-0.666-0.05l-0.696-0.02
		l-0.56,0.02L19.9,3.765l-0.56,0.051l-0.532,0.097l-0.532,0.086l-0.52,0.117l-0.513,0.155l-0.464,0.154l-0.484,0.184l-0.453,0.203
		l-0.455,0.203l-0.416,0.25l-0.396,0.252l-0.406,0.25l-0.358,0.279l-0.338,0.291l0.454-0.386l0.513-0.387l0.53-0.368l0.6-0.348
		l0.657-0.328l0.667-0.32l0.705-0.279l0.754-0.242l0.774-0.223l0.812-0.212l0.84-0.174l0.86-0.136l0.88-0.115l0.91-0.098
		l0.938-0.028l0.947-0.03l1.082,0.03l1.064,0.067l1.033,0.106l1.017,0.153l0.985,0.184l0.93,0.232l0.908,0.271l0.85,0.31l0.82,0.328
		l0.755,0.356l0.696,0.388l0.656,0.426l0.6,0.445l0.521,0.473l0.455,0.483L38.065,7.437z"/>
	<path d="M1.823,13.992V8.597h4.912c0.56,0,0.976,0.105,1.237,0.328c0.3,0.241,0.436,0.657,0.436,1.248v0.366
		c0,0.464-0.087,0.802-0.27,0.995c-0.116,0.126-0.33,0.242-0.658,0.34c0.3,0.077,0.493,0.164,0.6,0.262
		c0.193,0.184,0.3,0.502,0.3,0.938v0.917H6.735v-0.618c0-0.3-0.048-0.502-0.145-0.616c-0.087-0.117-0.3-0.166-0.6-0.166H3.475v1.4
		H1.823L1.823,13.992z M3.476,9.931v1.314h2.659c0.25,0,0.425-0.04,0.522-0.126s0.145-0.26,0.145-0.532
		c0-0.25-0.048-0.425-0.145-0.512c-0.087-0.098-0.3-0.145-0.6-0.145h-2.6l0,0H3.476z M9.528,13.992V8.597h5.887v1.246h-4.234v0.86
		h4.002v1.122h-4.002v0.87h4.34v1.295L9.528,13.992L9.528,13.992z M16.874,8.597h4.505c0.667,0,1.159,0.145,1.5,0.436
		c0.317,0.3,0.483,0.754,0.483,1.393v0.492c0,0.483-0.127,0.9-0.377,1.221c-0.25,0.338-0.639,0.512-1.171,0.512h-3.277v1.343h-1.663
		L16.874,8.597L16.874,8.597z M18.528,9.931v1.373h2.533c0.222,0,0.367-0.051,0.454-0.154c0.087-0.116,0.136-0.301,0.136-0.53
		c0-0.262-0.058-0.444-0.165-0.542c-0.097-0.098-0.27-0.145-0.52-0.145h-2.437L18.528,9.931z M23.082,13.992l2.957-5.395h2.137
		l2.958,5.395h-1.828l-0.522-0.958h-3.363l-0.514,0.958H23.08H23.082z M26.058,11.874h2.107l-1.055-1.991h-0.01L26.058,11.874
		L26.058,11.874z M33.463,12.25c0.021,0.24,0.067,0.406,0.146,0.483c0.077,0.066,0.27,0.105,0.569,0.105h2.116
		c0.437,0,0.658-0.146,0.658-0.453c0-0.193-0.086-0.32-0.26-0.396c-0.164-0.066-0.58-0.105-1.229-0.105h-1.016
		c-0.793,0-1.373-0.039-1.74-0.137c-0.368-0.087-0.62-0.25-0.745-0.502c-0.097-0.193-0.154-0.542-0.154-1.033
		c0-0.678,0.164-1.123,0.493-1.346s0.88-0.33,1.663-0.33h2.319c0.812,0,1.363,0.116,1.653,0.34c0.3,0.232,0.425,0.631,0.425,1.2
		v0.192H36.72c0-0.213-0.048-0.356-0.155-0.426c-0.096-0.066-0.317-0.104-0.667-0.104h-1.76c-0.455,0-0.678,0.144-0.678,0.425
		c0,0.301,0.154,0.436,0.475,0.444l0.9,0.021h1.121c0.765,0,1.334,0.049,1.701,0.146c0.366,0.106,0.627,0.3,0.764,0.54
		c0.115,0.223,0.184,0.562,0.184,1.035c0,0.473-0.068,0.82-0.193,1.043c-0.135,0.24-0.377,0.416-0.733,0.513
		c-0.358,0.087-0.899,0.136-1.644,0.136h-2.156c-0.803,0-1.344-0.105-1.635-0.32c-0.291-0.213-0.435-0.58-0.435-1.102v-0.377h1.653
		v-0.001L33.463,12.25z M39.109,8.597h1.98l1.808,2.213l1.798-2.213h1.981l-2.958,3.52v1.875h-1.653v-1.875L39.109,8.597
		L39.109,8.597z M45.509,13.585h0.357v0.395h-0.357V13.585z M48.429,13.382h0.26v0.057c0,0.195-0.048,0.33-0.154,0.427
		c-0.105,0.097-0.299,0.146-0.56,0.146h-0.62c-0.474,0-0.706-0.223-0.706-0.656v-0.357c0-0.232,0.058-0.406,0.185-0.514
		c0.125-0.108,0.338-0.163,0.63-0.163h0.493c0.473,0,0.705,0.185,0.705,0.55v0.061h-0.26v-0.049c0-0.117-0.029-0.203-0.105-0.252
		c-0.067-0.06-0.184-0.078-0.357-0.078h-0.531c-0.174,0-0.301,0.03-0.377,0.107c-0.068,0.077-0.106,0.191-0.106,0.357v0.3
		c0,0.165,0.048,0.3,0.146,0.358c0.086,0.066,0.231,0.096,0.424,0.096h0.443c0.33,0,0.493-0.115,0.493-0.348v-0.05L48.429,13.382z
		 M48.99,13.982v-0.223l1.461-1.199h-1.412v-0.223h1.797v0.223l-1.461,1.199h1.471v0.223H48.99z"/>
</g>
</svg>
