<?xml version="1.0" encoding="utf-8"?>
<!-- Generator: Adobe Illustrator 16.0.0, SVG Export Plug-In . SVG Version: 6.00 Build 0)  -->
<!DOCTYPE svg PUBLIC "-//W3C//DTD SVG 1.0//EN" "http://www.w3.org/TR/2001/REC-SVG-20010904/DTD/svg10.dtd">
<svg version="1.0" id="Layer_1" xmlns="http://www.w3.org/2000/svg" xmlns:xlink="http://www.w3.org/1999/xlink" x="0px" y="0px"
	 width="500px" height="56.103px" viewBox="0 0 500 56.103" enable-background="new 0 0 500 56.103" xml:space="preserve">
<g>
	<path fill-rule="evenodd" clip-rule="evenodd" d="M0,55.513V0.591h50c5.709,0,9.941,1.083,12.599,3.347
		c2.952,2.46,4.429,6.693,4.429,12.696v3.741c0,4.725-0.886,8.169-2.756,10.138c-1.181,1.28-3.346,2.46-6.693,3.445
		c3.052,0.786,5.02,1.673,6.201,2.657c1.969,1.869,3.051,5.118,3.051,9.548v9.351H50v-6.302c0-3.049-0.492-5.118-1.477-6.298
		c-0.886-1.181-2.952-1.674-6.003-1.674H16.831v14.273H0L0,55.513z M16.831,14.173v13.386h27.165c2.56,0,4.332-0.394,5.315-1.279
		c0.984-0.886,1.477-2.657,1.477-5.414c0-2.559-0.492-4.331-1.477-5.216c-0.886-0.984-2.953-1.477-6.004-1.477H16.831L16.831,14.173
		z M78.444,55.513V0.591h59.941v12.697h-43.11v8.76h40.748v11.418H95.275v8.858h44.193v13.189H78.444L78.444,55.513z M153.248,0.591
		h45.865c6.792,0,11.812,1.477,15.157,4.429c3.248,2.953,4.921,7.677,4.921,14.173v5.021c0,4.921-1.279,9.055-3.838,12.401
		c-2.559,3.444-6.496,5.218-11.91,5.218h-33.365v13.681h-16.831V0.591L153.248,0.591z M170.078,14.173V28.15h25.787
		c2.264,0,3.74-0.492,4.626-1.575c0.886-1.181,1.378-2.953,1.378-5.413c0-2.658-0.591-4.528-1.673-5.512
		c-0.984-0.984-2.756-1.477-5.315-1.477H170.078L170.078,14.173z M216.436,55.513l30.118-54.922h21.751l30.119,54.922h-18.602
		l-5.316-9.745h-34.251l-5.217,9.745H216.436L216.436,55.513z M246.75,33.958L246.75,33.958h21.458l0,0l-10.729-20.276h-0.098
		L246.75,33.958L246.75,33.958z M322.145,37.795L322.145,37.795c0.196,2.462,0.688,4.133,1.476,4.921
		c0.787,0.688,2.756,1.084,5.807,1.084h21.556c4.43,0,6.692-1.477,6.692-4.627c0-1.969-0.885-3.247-2.656-4.035
		c-1.675-0.689-5.906-1.083-12.501-1.083h-10.334c-8.071,0-13.978-0.394-17.717-1.377c-3.74-0.886-6.3-2.559-7.578-5.119
		c-0.985-1.968-1.575-5.512-1.575-10.531c0-6.89,1.673-11.417,5.02-13.681S319.289,0,327.262,0h23.622
		c8.268,0,13.878,1.182,16.831,3.445c2.952,2.362,4.331,6.398,4.331,12.303v1.968h-16.732c0-2.165-0.493-3.641-1.575-4.331
		c-0.984-0.689-3.248-1.083-6.791-1.083h-17.913c-4.627,0-6.89,1.477-6.89,4.331c0,2.953,1.574,4.43,4.822,4.528
		c3.15,0.098,6.2,0.196,9.055,0.196h11.418c7.775,0,13.582,0.493,17.42,1.477c3.741,1.083,6.398,2.953,7.776,5.512
		c1.182,2.264,1.87,5.708,1.87,10.533c0,4.821-0.688,8.364-1.969,10.629c-1.378,2.462-3.838,4.231-7.479,5.217
		c-3.643,0.887-9.154,1.378-16.733,1.378h-21.948c-8.17,0-13.681-1.084-16.634-3.249c-2.952-2.166-4.429-5.903-4.429-11.22v-3.839
		H322.145L322.145,37.795z M379.624,0.591h20.177l18.405,22.54l18.307-22.54h20.179l-30.119,35.827v19.096h-16.831V36.417
		L379.624,0.591L379.624,0.591z M379.033,0L379.033,0L379.033,0z"/>
	<path fill-rule="evenodd" clip-rule="evenodd" d="M444.781,51.377h3.643v4.037h-3.643V51.377L444.781,51.377z M474.506,49.311
		h2.657v0.59c0,1.97-0.491,3.348-1.575,4.33c-1.082,0.985-2.952,1.477-5.709,1.477h-6.298c-4.823,0-7.186-2.261-7.186-6.69v-3.642
		c0-2.363,0.591-4.136,1.869-5.218c1.28-1.084,3.445-1.674,6.398-1.674h5.02c4.823,0,7.186,1.872,7.186,5.609v0.593h-2.658v-0.494
		c0-1.18-0.295-2.066-1.083-2.558c-0.688-0.59-1.87-0.787-3.642-0.787h-5.413c-1.771,0-3.051,0.296-3.838,1.081
		c-0.689,0.788-1.083,1.971-1.083,3.642v3.15c0,1.675,0.492,2.953,1.477,3.643c0.885,0.688,2.361,0.984,4.33,0.984h4.527
		c3.347,0,5.021-1.183,5.021-3.543V49.311L474.506,49.311z M466.926,55.415L466.926,55.415L466.926,55.415z M480.215,55.415V53.15
		l14.862-12.105h-14.371v-2.264h18.308v2.264L484.151,53.15h14.961v2.265H480.215L480.215,55.415z"/>
</g>
</svg>
